<svg width="25" height="28" viewBox="0 0 25 28" fill="none" xmlns="http://www.w3.org/2000/svg">
<path d="M19.4777 10.9386L13.6666 9.54325V3.00992C13.6739 2.30777 13.434 1.62543 12.9888 1.08238C12.5437 0.539326 11.9217 0.170181 11.2317 0.0395866C10.8137 -0.0304299 10.3855 -0.0085056 9.97683 0.103833C9.56816 0.216172 9.18888 0.416227 8.8654 0.69007C8.54192 0.963914 8.282 1.30497 8.10375 1.68949C7.9255 2.07401 7.83319 2.49276 7.83325 2.91659V19.8333C7.83325 20.1427 7.71033 20.4394 7.49154 20.6582C7.27274 20.877 6.976 20.9999 6.66658 20.9999C6.35716 20.9999 6.06041 20.877 5.84162 20.6582C5.62283 20.4394 5.49991 20.1427 5.49991 19.8333V11.2699L2.24608 15.5166C1.29174 16.6335 0.791924 18.0683 0.84573 19.5364C0.899537 21.0045 1.50304 22.3988 2.53658 23.4429L5.33658 26.2721C6.43528 27.3745 7.9265 27.9959 9.48291 27.9999H18.3332C19.8803 27.9999 21.3641 27.3853 22.458 26.2914C23.552 25.1974 24.1666 23.7137 24.1666 22.1666V16.6588C24.1666 15.3103 23.6995 14.0034 22.8446 12.9605C21.9898 11.9177 20.8 11.2032 19.4777 10.9386V10.9386Z" fill="#1DCB9D"/>
</svg>
