<svg width="52" height="52" viewBox="0 0 52 52" fill="none" xmlns="http://www.w3.org/2000/svg">
<g clip-path="url(#clip0_2272_11374)">
<path d="M27.8114 0.0604851C24.0967 -0.199426 20.3696 0.341601 16.8822 1.64696C13.3948 2.95231 10.2285 4.99154 7.59747 7.62665C4.96647 10.2618 2.93219 13.4313 1.63227 16.9207C0.332363 20.4102 -0.202847 24.1381 0.0628603 27.8523C1.01836 41.6172 13.1777 51.9998 28.3465 51.9998H41.1667C44.0388 51.9964 46.7923 50.8539 48.8232 48.823C50.8541 46.7921 51.9966 44.0386 52 41.1665V26.7365C52.0808 20.0576 49.6321 13.5954 45.1454 8.64736C40.6587 3.69929 34.4662 0.6317 27.8114 0.0604851ZM40.5167 21.0425L25.7985 35.5743C24.9864 36.3834 23.8867 36.8377 22.7403 36.8377C21.5939 36.8377 20.4942 36.3834 19.682 35.5743L11.4834 27.549C11.0725 27.1467 10.8383 26.5978 10.8322 26.0228C10.8261 25.4478 11.0486 24.894 11.4509 24.4832C11.8531 24.0723 12.4021 23.838 12.977 23.832C13.552 23.8259 14.1058 24.0484 14.5167 24.4507L22.7349 32.4825L37.4812 17.9658C37.897 17.5999 38.4372 17.4072 38.9908 17.4272C39.5443 17.4472 40.0692 17.6785 40.4575 18.0735C40.8458 18.4685 41.0681 18.9972 41.0787 19.551C41.0893 20.1048 40.8874 20.6416 40.5145 21.0512L40.5167 21.0425Z" fill="#1DCB9D"/>
</g>
<defs>
<clipPath id="clip0_2272_11374">
<rect width="52" height="52" fill="white"/>
</clipPath>
</defs>
</svg>
