<svg width="111" height="77" viewBox="0 0 111 77" fill="none" xmlns="http://www.w3.org/2000/svg">
<path d="M12 33.2316V6.53271C12 5.32084 12.1041 4.22259 12.3124 3.23795C12.5207 2.25331 12.9562 1.46749 13.619 0.880495C14.3006 0.293498 15.3326 0 16.7149 0C18.0972 0 19.1197 0.293498 19.7824 0.880495C20.4641 1.46749 20.9091 2.25331 21.1174 3.23795C21.3257 4.22259 21.4298 5.32084 21.4298 6.53271V33.2316C21.4298 34.4624 21.3257 35.5796 21.1174 36.5832C20.928 37.5678 20.4925 38.3441 19.8108 38.9122C19.1481 39.4803 18.1161 39.7643 16.7149 39.7643C15.3516 39.7643 14.3291 39.4803 13.6474 38.9122C12.9846 38.3252 12.5397 37.5394 12.3124 36.5548C12.1041 35.5701 12 34.4624 12 33.2316Z" fill="#1DCB9D"/>
<path d="M25.4297 35.5606V6.53271C25.4297 5.35871 25.5244 4.2794 25.7137 3.29476C25.9031 2.29118 26.3007 1.4959 26.9066 0.908898C27.5315 0.302966 28.4783 0 29.747 0C31.1103 0 32.1044 0.293498 32.7293 0.880495C33.3731 1.44856 33.7802 2.22491 33.9506 3.20955C34.14 4.19419 34.2346 5.30191 34.2346 6.53271V31.4138H39.8016C40.9378 31.4138 41.9792 31.5085 42.926 31.6978C43.8917 31.8872 44.6586 32.2754 45.2266 32.8624C45.8136 33.4494 46.1071 34.3488 46.1071 35.5606C46.1071 36.7914 45.8136 37.7098 45.2266 38.3157C44.6586 38.9027 43.9012 39.2909 42.9544 39.4803C42.0076 39.6696 40.9567 39.7643 39.8016 39.7643H31.7352C29.7091 39.7643 28.1469 39.5371 27.0487 39.0826C25.9693 38.6282 25.4297 37.4542 25.4297 35.5606Z" fill="#1DCB9D"/>
<path d="M50 30.1133V23.0694C50 21.3084 50.2367 19.8314 50.7101 18.6385C51.1835 17.4266 51.7894 16.4136 52.5279 15.5994C53.2853 14.7851 54.1279 14.1508 55.0557 13.6964C55.9457 13.2419 56.8451 12.9011 57.754 12.6739C58.644 12.4466 59.4677 12.3046 60.2251 12.2478C61.0015 12.191 61.6074 12.1626 62.0429 12.1626C62.4784 12.1626 63.0749 12.191 63.8323 12.2478C64.5897 12.3046 65.4039 12.4466 66.275 12.6739C67.146 12.9011 68.017 13.2419 68.888 13.6964C69.778 14.1508 70.5733 14.7851 71.2739 15.5994C71.9934 16.4136 72.571 17.4266 73.0065 18.6385C73.4609 19.8504 73.6882 21.3273 73.6882 23.0694V30.1133C73.6882 31.8365 73.4609 33.3134 73.0065 34.5442C72.552 35.7561 71.9745 36.7691 71.2739 37.5833C70.5733 38.3976 69.778 39.0319 68.888 39.4864C68.017 39.9408 67.146 40.2816 66.275 40.5089C65.4039 40.7361 64.5897 40.8781 63.8323 40.9349C63.0749 40.9917 62.4784 41.0201 62.0429 41.0201C61.6263 41.0201 61.0299 40.9917 60.2535 40.9349C59.4961 40.8781 58.6629 40.7361 57.754 40.5089C56.8641 40.2816 55.9646 39.9408 55.0557 39.4864C54.1279 39.0319 53.2948 38.3976 52.5563 37.5833C51.7989 36.7691 51.1835 35.7561 50.7101 34.5442C50.2367 33.3324 50 31.8554 50 30.1133ZM58.7481 21.8196V32.1016C58.786 32.6696 58.9186 33.1525 59.1458 33.5501C59.3541 33.9288 59.676 34.2697 60.1115 34.5726C60.5659 34.8567 61.2097 34.9987 62.0429 34.9987C62.8382 34.9987 63.4441 34.8567 63.8607 34.5726C64.2962 34.2697 64.6181 33.9288 64.8264 33.5501C65.0726 33.0957 65.2051 32.6128 65.224 32.1016V21.8196C65.2051 21.2895 65.0726 20.7687 64.8264 20.2575C64.6181 19.8788 64.2962 19.5285 63.8607 19.2066C63.4441 18.8657 62.8382 18.6953 62.0429 18.6953C61.2097 18.6953 60.5659 18.8657 60.1115 19.2066C59.676 19.5285 59.3541 19.8788 59.1458 20.2575C58.9186 20.693 58.786 21.2137 58.7481 21.8196Z" fill="#1DCB9D"/>
<path d="M108 18.6197V41.5912C108 43.3055 107.711 44.7531 107.133 45.934C106.53 47.115 105.771 48.0959 104.855 48.8769C103.964 49.6578 102.952 50.2674 101.819 50.7055C100.663 51.1436 99.5663 51.4769 98.5301 51.7055C97.4458 51.915 96.4578 52.0388 95.5663 52.0769C94.6747 52.134 94 52.1626 93.5422 52.1626C91.8313 52.1626 90.1205 52.0674 88.4096 51.8769C86.7229 51.6864 85.1687 51.334 83.747 50.8197C82.3494 50.3055 81.1807 49.6102 80.241 48.734C79.3012 47.8578 78.7711 46.734 78.6506 45.3626C78.6506 44.6769 79.012 44.0864 79.7349 43.5912C80.4819 43.0959 81.8072 42.8483 83.7108 42.8483C85.8313 42.8483 87.2289 43.0197 87.9036 43.3626C88.5783 43.7245 89.1566 44.4102 89.6386 45.4197C90 46.1436 91.1566 46.5055 93.1084 46.5055C94.1928 46.5055 95.012 46.2769 95.5663 45.8197C96.1446 45.3626 96.5301 44.8007 96.7229 44.134C96.9157 43.4864 97.012 42.8864 97.012 42.334V35.934C96.5301 37.2102 95.6627 38.334 94.4096 39.3055C93.1566 40.2578 91.4217 40.734 89.2048 40.734C87.8795 40.734 86.5542 40.5626 85.2289 40.2197C83.9036 39.8769 82.7108 39.3055 81.6506 38.5055C80.5663 37.7245 79.6867 36.6864 79.012 35.3912C78.3373 34.0959 78 32.4864 78 30.5626V22.2769C78 20.3912 78.3373 18.8102 79.012 17.534C79.6867 16.2388 80.5663 15.1912 81.6506 14.3912C82.7108 13.5912 83.9036 13.0197 85.2289 12.6769C86.5542 12.334 87.8795 12.1626 89.2048 12.1626C91.4217 12.1626 93.1566 12.6483 94.4096 13.6197C95.6627 14.5912 96.5301 15.7055 97.012 16.9626C97.012 16.2007 97.1446 15.4578 97.4096 14.734C97.6988 13.9912 98.241 13.3816 99.0361 12.9055C99.8313 12.4102 101.012 12.1626 102.578 12.1626C104.241 12.1626 105.446 12.4578 106.193 13.0483C106.964 13.6197 107.458 14.4007 107.675 15.3912C107.892 16.3626 108 17.4388 108 18.6197ZM89.2048 23.0197V29.934C89.2048 31.0197 89.3735 31.9816 89.7108 32.8197C90.0482 33.6388 90.9398 34.0483 92.3855 34.0483C93.5904 34.0483 94.5181 33.6769 95.1687 32.934C95.8434 32.1912 96.3133 31.2959 96.5783 30.2483C96.8675 29.1816 97.012 28.2007 97.012 27.3055C96.988 25.8578 96.9036 24.6007 96.759 23.534C96.6386 22.4674 96.4096 21.5816 96.0723 20.8769C95.3976 19.5245 94.1687 18.8483 92.3855 18.8483C90.9398 18.8483 90.0482 19.2674 89.7108 20.1055C89.3735 20.9245 89.2048 21.8959 89.2048 23.0197Z" fill="#1DCB9D"/>
<circle cx="10.0678" cy="54.0678" r="10.0678" fill="#1DCB9D" fill-opacity="0.2"/>
<circle cx="10.0678" cy="54.0678" r="5.59322" fill="#1DCB9D"/>
<path d="M107.5 60.1626C107.5 67.3423 86.0097 73.1626 59.5 73.1626C32.9903 73.1626 15 63.1626 12 57.1626" stroke="#1DCB9D" stroke-width="6" stroke-linecap="round" stroke-linejoin="round"/>
</svg>
