<svg width="20" height="20" viewBox="0 0 20 20" fill="none" xmlns="http://www.w3.org/2000/svg">
<g clip-path="url(#clip0_2272_15989)">
<path d="M14.5835 1.59668C13.6451 1.61128 12.7272 1.87322 11.9224 2.35607C11.1177 2.83892 10.4546 3.52557 10.0001 4.34668C9.54566 3.52557 8.88257 2.83892 8.07783 2.35607C7.27308 1.87322 6.35517 1.61128 5.41679 1.59668C3.92091 1.66167 2.51155 2.31606 1.49661 3.41687C0.481678 4.51769 -0.0563308 5.97545 0.000128002 7.47168C0.000128002 11.2608 3.98846 15.3992 7.33346 18.205C8.08031 18.8326 9.02459 19.1767 10.0001 19.1767C10.9757 19.1767 11.9199 18.8326 12.6668 18.205C16.0118 15.3992 20.0001 11.2608 20.0001 7.47168C20.0566 5.97545 19.5186 4.51769 18.5036 3.41687C17.4887 2.31606 16.0793 1.66167 14.5835 1.59668Z" fill="#FE2C62"/>
</g>
<defs>
<clipPath id="clip0_2272_15989">
<rect width="20" height="20" fill="white"/>
</clipPath>
</defs>
</svg>
