<svg width="20" height="20" viewBox="0 0 20 20" fill="none" xmlns="http://www.w3.org/2000/svg">
<g clip-path="url(#clip0_1815_13682)">
<path d="M14.5833 1.59717C13.6449 1.61176 12.727 1.87371 11.9223 2.35656C11.1175 2.83941 10.4545 3.52606 9.99999 4.34717C9.54552 3.52606 8.88243 2.83941 8.07769 2.35656C7.27294 1.87371 6.35503 1.61176 5.41666 1.59717C3.92077 1.66216 2.51141 2.31655 1.49648 3.41736C0.48154 4.51818 -0.0564681 5.97594 -9.32673e-06 7.47217C-9.32673e-06 11.2613 3.98832 15.3997 7.33332 18.2055C8.08017 18.8331 9.02445 19.1772 9.99999 19.1772C10.9755 19.1772 11.9198 18.8331 12.6667 18.2055C16.0117 15.3997 20 11.2613 20 7.47217C20.0564 5.97594 19.5184 4.51818 18.5035 3.41736C17.4886 2.31655 16.0792 1.66216 14.5833 1.59717ZM11.5958 16.9305C11.1491 17.3066 10.584 17.5129 9.99999 17.5129C9.41603 17.5129 8.85084 17.3066 8.40416 16.9305C4.12249 13.338 1.66666 9.89133 1.66666 7.47217C1.60969 6.41776 1.97196 5.38361 2.67446 4.59525C3.37696 3.80689 4.36269 3.32829 5.41666 3.26383C6.47063 3.32829 7.45636 3.80689 8.15885 4.59525C8.86135 5.38361 9.22362 6.41776 9.16666 7.47217C9.16666 7.69318 9.25445 7.90514 9.41074 8.06142C9.56701 8.2177 9.77898 8.3055 9.99999 8.3055C10.221 8.3055 10.433 8.2177 10.5892 8.06142C10.7455 7.90514 10.8333 7.69318 10.8333 7.47217C10.7764 6.41776 11.1386 5.38361 11.8411 4.59525C12.5436 3.80689 13.5294 3.32829 14.5833 3.26383C15.6373 3.32829 16.623 3.80689 17.3255 4.59525C18.028 5.38361 18.3903 6.41776 18.3333 7.47217C18.3333 9.89133 15.8775 13.338 11.5958 16.9272V16.9305Z" fill="#333333"/>
</g>
<defs>
<clipPath id="clip0_1815_13682">
<rect width="20" height="20" fill="white"/>
</clipPath>
</defs>
</svg>
