<svg width="27" height="34" viewBox="0 0 27 34" fill="none" xmlns="http://www.w3.org/2000/svg">
<g clip-path="url(#clip0_1667_1578)">
<path d="M19.5002 6.00002C19.5023 5.02866 19.2685 4.07131 18.819 3.21023C18.3695 2.34915 17.7176 1.61008 16.9194 1.05652C16.1212 0.502969 15.2006 0.151485 14.2366 0.0322691C13.2726 -0.0869463 12.294 0.0296724 11.385 0.372105C10.476 0.714538 9.66374 1.27254 9.01799 1.99818C8.37224 2.72382 7.91233 3.59538 7.67776 4.538C7.44319 5.48061 7.44098 6.46607 7.67132 7.40973C7.90167 8.35338 8.35768 9.227 9.00017 9.95552V16.125C9.00016 16.4782 9.09993 16.8243 9.28797 17.1233C9.47601 17.4223 9.74468 17.6621 10.063 17.815C10.3814 17.968 10.7365 18.028 11.0874 17.988C11.4384 17.948 11.7709 17.8097 12.0467 17.589L13.2662 16.614C13.3326 16.561 13.4151 16.5321 13.5002 16.5321C13.5852 16.5321 13.6677 16.561 13.7342 16.614L14.9537 17.589C15.2295 17.8097 15.562 17.948 15.9129 17.988C16.2638 18.028 16.6189 17.968 16.9373 17.815C17.2557 17.6621 17.5243 17.4223 17.7124 17.1233C17.9004 16.8243 18.0002 16.4782 18.0002 16.125V9.95552C18.9664 8.86442 19.4999 7.45745 19.5002 6.00002V6.00002ZM13.5002 1.50002C14.3902 1.50002 15.2602 1.76394 16.0002 2.25841C16.7403 2.75287 17.317 3.45568 17.6576 4.27794C17.9982 5.10021 18.0873 6.00501 17.9137 6.87793C17.7401 7.75084 17.3115 8.55266 16.6821 9.182C16.0528 9.81134 15.251 10.2399 14.3781 10.4136C13.5052 10.5872 12.6004 10.4981 11.7781 10.1575C10.9558 9.81688 10.253 9.24011 9.75856 8.50009C9.26409 7.76006 9.00017 6.89004 9.00017 6.00002C9.00136 4.80691 9.47585 3.66301 10.3195 2.81936C11.1632 1.9757 12.3071 1.50121 13.5002 1.50002V1.50002ZM16.2879 16.461C16.2245 16.4925 16.1533 16.5049 16.0829 16.497C16.0125 16.489 15.946 16.4609 15.8912 16.416L14.6717 15.441C14.3398 15.1737 13.9264 15.0279 13.5002 15.0279C13.074 15.0279 12.6606 15.1737 12.3287 15.441L11.1099 16.416C11.0549 16.4602 10.9885 16.4879 10.9184 16.4961C10.8483 16.5042 10.7773 16.4924 10.7137 16.462C10.65 16.4316 10.5961 16.3839 10.5584 16.3243C10.5206 16.2646 10.5004 16.1956 10.5002 16.125V11.1885C11.4106 11.7199 12.4459 12 13.5002 12C14.5544 12 15.5897 11.7199 16.5002 11.1885V16.125C16.501 16.1955 16.4814 16.2648 16.4437 16.3244C16.4061 16.384 16.352 16.4315 16.2879 16.461V16.461Z" fill="#1DCB9D"/>
</g>
<path d="M3.05606 25.6352C3.05606 26.5141 3.78359 27.4077 4.87246 27.7837L4.53066 28.3501C3.66152 28.0522 3.02676 27.4419 2.70938 26.7192C2.39688 27.5053 1.76211 28.1792 0.897852 28.5161L0.526758 27.9301C1.62051 27.5102 2.32363 26.5483 2.3334 25.6352V25.5571H0.731836V24.9516H2.3334V24.0044H3.05606V24.9516H4.62832V25.5571H3.05606V25.6352ZM2.09902 29.5903V28.9946H7.86074V30.9966H2.88027V31.9243H8.21231V32.52H2.11856V30.4204H7.10879V29.5903H2.09902ZM5.25332 28.5356V24.1313H5.99551V25.938H7.12832V23.9653H7.86074V28.604H7.12832V26.5727H5.99551V28.5356H5.25332ZM16.6885 23.9653V30.352H15.9365V23.9653H16.6885ZM9.96973 25.2055V24.5805H13.9346V27.0903H10.7314V28.477C12.3477 28.477 13.4854 28.4282 14.8623 28.1841L14.9404 28.8188C13.5244 29.063 12.3574 29.1118 10.6924 29.1216H9.98926V26.4848H13.1729V25.2055H9.96973ZM10.9951 32.4516V29.854H11.7666V31.8071H16.9424V32.4516H10.9951ZM21.6783 26.6216C21.6832 28.0962 22.7525 29.5952 24.0318 30.1469L23.6021 30.7524C22.5865 30.2934 21.7125 29.2924 21.3072 28.0913C20.902 29.3657 20.023 30.4692 19.0318 30.9673L18.5729 30.3618C19.818 29.7661 20.902 28.1255 20.9068 26.6216V25.4887H18.8561V24.854H23.7486V25.4887H21.6783V26.6216ZM24.9596 32.6372V23.9555H25.7311V32.6372H24.9596Z" fill="#1DCB9D"/>
<defs>
<clipPath id="clip0_1667_1578">
<rect width="18" height="18" fill="white" transform="translate(4.5)"/>
</clipPath>
</defs>
</svg>
