<svg width="27" height="34" viewBox="0 0 27 34" fill="none" xmlns="http://www.w3.org/2000/svg">
<g clip-path="url(#clip0_1626_2054)">
<path d="M19.5002 6.11541C19.5024 5.14405 19.2686 4.1867 18.8191 3.32562C18.3696 2.46453 17.7177 1.72546 16.9195 1.17191C16.1213 0.618356 15.2006 0.266871 14.2366 0.147656C13.2726 0.0284406 12.2941 0.145059 11.3851 0.487492C10.4761 0.829925 9.6638 1.38793 9.01805 2.11357C8.3723 2.8392 7.91239 3.71077 7.67782 4.65338C7.44325 5.59599 7.44104 6.58146 7.67139 7.52511C7.90173 8.46877 8.35774 9.34238 9.00023 10.0709V16.2404C9.00022 16.5936 9.09999 16.9396 9.28803 17.2386C9.47607 17.5376 9.74474 17.7774 10.0631 17.9304C10.3815 18.0834 10.7366 18.1434 11.0875 18.1034C11.4384 18.0634 11.7709 17.9251 12.0467 17.7044L13.2662 16.7294C13.3327 16.6763 13.4152 16.6474 13.5002 16.6474C13.5853 16.6474 13.6678 16.6763 13.7342 16.7294L14.9537 17.7044C15.2295 17.9251 15.562 18.0634 15.913 18.1034C16.2639 18.1434 16.619 18.0834 16.9374 17.9304C17.2557 17.7774 17.5244 17.5376 17.7124 17.2386C17.9005 16.9396 18.0002 16.5936 18.0002 16.2404V10.0709C18.9665 8.9798 19.5 7.57284 19.5002 6.11541V6.11541ZM13.5002 1.61541C14.3902 1.61541 15.2603 1.87933 16.0003 2.37379C16.7403 2.86826 17.3171 3.57106 17.6577 4.39333C17.9983 5.2156 18.0874 6.1204 17.9138 6.99331C17.7401 7.86623 17.3115 8.66805 16.6822 9.29739C16.0529 9.92672 15.2511 10.3553 14.3781 10.5289C13.5052 10.7026 12.6004 10.6135 11.7782 10.2729C10.9559 9.93227 10.2531 9.35549 9.75862 8.61547C9.26415 7.87545 9.00023 7.00542 9.00023 6.11541C9.00142 4.9223 9.47591 3.7784 10.3196 2.93474C11.1632 2.09109 12.3071 1.6166 13.5002 1.61541V1.61541ZM16.288 16.5764C16.2245 16.6078 16.1533 16.6203 16.083 16.6123C16.0126 16.6044 15.946 16.5763 15.8912 16.5314L14.6717 15.5564C14.3398 15.289 13.9264 15.1433 13.5002 15.1433C13.074 15.1433 12.6606 15.289 12.3287 15.5564L11.11 16.5314C11.0549 16.5756 10.9886 16.6033 10.9185 16.6115C10.8484 16.6196 10.7774 16.6078 10.7137 16.5774C10.65 16.547 10.5962 16.4993 10.5584 16.4397C10.5207 16.38 10.5005 16.311 10.5002 16.2404V11.3039C11.4107 11.8353 12.446 12.1154 13.5002 12.1154C14.5545 12.1154 15.5898 11.8353 16.5002 11.3039V16.2404C16.5011 16.3109 16.4815 16.3802 16.4438 16.4398C16.4061 16.4994 16.352 16.5469 16.288 16.5764V16.5764Z" fill="#C0C0C0"/>
</g>
<path d="M3.05612 25.7506C3.05612 26.6295 3.78366 27.5231 4.87252 27.899L4.53073 28.4655C3.66158 28.1676 3.02682 27.5573 2.70944 26.8346C2.39694 27.6207 1.76217 28.2946 0.897913 28.6315L0.526819 28.0455C1.62057 27.6256 2.32369 26.6637 2.33346 25.7506V25.6725H0.731897V25.067H2.33346V24.1198H3.05612V25.067H4.62838V25.6725H3.05612V25.7506ZM2.09908 29.7057V29.11H7.8608V31.1119H2.88033V32.0397H8.21237V32.6354H2.11862V30.5358H7.10885V29.7057H2.09908ZM5.25338 28.651V24.2467H5.99557V26.0533H7.12838V24.0807H7.8608V28.7194H7.12838V26.6881H5.99557V28.651H5.25338ZM16.6885 24.0807V30.4674H15.9366V24.0807H16.6885ZM9.96979 25.3209V24.6959H13.9346V27.2057H10.7315V28.5924C12.3477 28.5924 13.4854 28.5436 14.8624 28.2994L14.9405 28.9342C13.5245 29.1783 12.3575 29.2272 10.6924 29.2369H9.98932V26.6002H13.1729V25.3209H9.96979ZM10.9952 32.567V29.9694H11.7667V31.9225H16.9424V32.567H10.9952ZM21.6784 26.7369C21.6833 28.2115 22.7526 29.7106 24.0319 30.2623L23.6022 30.8678C22.5866 30.4088 21.7126 29.4078 21.3073 28.2067C20.902 29.4811 20.0231 30.5846 19.0319 31.0826L18.5729 30.4772C19.818 29.8815 20.902 28.2408 20.9069 26.7369V25.6041H18.8561V24.9694H23.7487V25.6041H21.6784V26.7369ZM24.9596 32.7526V24.0709H25.7311V32.7526H24.9596Z" fill="#C0C0C0"/>
<defs>
<clipPath id="clip0_1626_2054">
<rect width="18" height="18" fill="white" transform="translate(4.50006 0.115387)"/>
</clipPath>
</defs>
</svg>
