<svg width="19" height="34" viewBox="0 0 19 34" fill="none" xmlns="http://www.w3.org/2000/svg">
<g clip-path="url(#clip0_1626_2050)">
<path d="M15.8495 1.59049L11.585 0.280995C10.6437 -0.00568501 9.6275 0.0882398 8.75469 0.542595C7.88188 0.996949 7.22208 1.77549 6.917 2.71099L6.776 3.11524H4.25C3.2558 3.11643 2.30267 3.5119 1.59966 4.2149C0.896661 4.91791 0.501191 5.87104 0.5 6.86524L0.5 14.3652C0.501191 15.3594 0.896661 16.3126 1.59966 17.0156C2.30267 17.7186 3.2558 18.114 4.25 18.1152H8.75C9.31814 18.1132 9.87833 17.9815 10.3878 17.7302C10.8973 17.4788 11.3427 17.1144 11.69 16.6647C11.8612 16.6896 12.0338 16.7026 12.2067 16.7037C13.0121 16.7043 13.796 16.4444 14.4415 15.9628C15.087 15.4812 15.5593 14.8037 15.788 14.0315L18.35 6.23224C18.6237 5.28521 18.5151 4.26862 18.0476 3.40076C17.5801 2.53289 16.7909 1.88295 15.8495 1.59049ZM8.75 16.6152H4.25C3.65326 16.6152 3.08097 16.3782 2.65901 15.9562C2.23705 15.5343 2 14.962 2 14.3652V6.86524C2 6.2685 2.23705 5.69621 2.65901 5.27425C3.08097 4.85229 3.65326 4.61524 4.25 4.61524H8.75C9.34674 4.61524 9.91903 4.85229 10.341 5.27425C10.7629 5.69621 11 6.2685 11 6.86524V14.3652C11 14.962 10.7629 15.5343 10.341 15.9562C9.91903 16.3782 9.34674 16.6152 8.75 16.6152ZM16.9152 5.78749L14.3563 13.5875C14.2291 14.019 13.9752 14.4023 13.6274 14.6877C13.2797 14.9731 12.8543 15.1474 12.4062 15.188C12.4678 14.918 12.4993 14.6421 12.5 14.3652V6.86524C12.4988 5.87104 12.1033 4.91791 11.4003 4.2149C10.6973 3.5119 9.7442 3.11643 8.75 3.11524H8.36975C8.56334 2.56967 8.95977 2.11972 9.4766 1.85893C9.99343 1.59814 10.5909 1.54659 11.1447 1.71499L15.4093 3.02449C15.9709 3.19782 16.4427 3.58366 16.724 4.09979C17.0054 4.61591 17.074 5.2215 16.9152 5.78749ZM9.5 9.86523C9.5 10.9527 8.342 12.4085 7.4645 13.1487C7.19489 13.3768 6.85316 13.502 6.5 13.502C6.14684 13.502 5.80511 13.3768 5.5355 13.1487C4.658 12.4085 3.5 10.9527 3.5 9.86523C3.5 9.46741 3.65804 9.08588 3.93934 8.80457C4.22064 8.52327 4.60218 8.36524 5 8.36524C5.39782 8.36524 5.77936 8.52327 6.06066 8.80457C6.34196 9.08588 6.5 9.46741 6.5 9.86523C6.5 9.46741 6.65804 9.08588 6.93934 8.80457C7.22064 8.52327 7.60218 8.36524 8 8.36524C8.39782 8.36524 8.77936 8.52327 9.06066 8.80457C9.34196 9.08588 9.5 9.46741 9.5 9.86523Z" fill="#C0C0C0"/>
</g>
<path d="M8.18672 24.0709V32.7526H7.41523V24.0709H8.18672ZM0.999219 29.9498C1.3752 29.9498 1.78047 29.9449 2.20039 29.9401V25.653H1.22383V25.0182H6.18477V25.653H5.19844V29.8278C5.68672 29.7936 6.17012 29.7496 6.63398 29.6959L6.68281 30.2721C4.78828 30.5651 2.69355 30.5944 1.08711 30.6041L0.999219 29.9498ZM2.95234 29.9254C3.44063 29.9156 3.94355 29.8961 4.44648 29.8717V25.653H2.95234V29.9254ZM17.0633 28.2506V28.8854H11.0672V24.8815H16.9754V25.5162H11.8289V28.2506H17.0633ZM10.0516 31.5709V30.9264H18.0008V31.5709H10.0516Z" fill="#C0C0C0"/>
<defs>
<clipPath id="clip0_1626_2050">
<rect width="18" height="18" fill="white" transform="translate(0.5 0.115387)"/>
</clipPath>
</defs>
</svg>
