<svg width="18" height="34" viewBox="0 0 18 34" fill="none" xmlns="http://www.w3.org/2000/svg">
<g clip-path="url(#clip0_1667_1574)">
<path d="M15.3495 1.47511L11.085 0.165608C10.1437 -0.121072 9.1275 -0.0271472 8.25469 0.427208C7.38188 0.881562 6.72208 1.6601 6.417 2.5956L6.276 2.99985H3.75C2.7558 3.00105 1.80267 3.39652 1.09966 4.09952C0.396661 4.80252 0.00119089 5.75565 0 6.74985L0 14.2498C0.00119089 15.244 0.396661 16.1972 1.09966 16.9002C1.80267 17.6032 2.7558 17.9986 3.75 17.9998H8.25C8.81814 17.9979 9.37833 17.8661 9.88784 17.6148C10.3973 17.3634 10.8427 16.999 11.19 16.5493C11.3612 16.5742 11.5338 16.5872 11.7068 16.5883C12.5121 16.589 13.296 16.329 13.9415 15.8474C14.587 15.3658 15.0593 14.6883 15.288 13.9161L17.85 6.11685C18.1237 5.16983 18.0151 4.15324 17.5476 3.28537C17.0801 2.4175 16.2909 1.76756 15.3495 1.47511V1.47511ZM8.25 16.4998H3.75C3.15326 16.4998 2.58097 16.2628 2.15901 15.8408C1.73705 15.4189 1.5 14.8466 1.5 14.2498V6.74985C1.5 6.15311 1.73705 5.58082 2.15901 5.15886C2.58097 4.73691 3.15326 4.49985 3.75 4.49985H8.25C8.84674 4.49985 9.41903 4.73691 9.84099 5.15886C10.2629 5.58082 10.5 6.15311 10.5 6.74985V14.2498C10.5 14.8466 10.2629 15.4189 9.84099 15.8408C9.41903 16.2628 8.84674 16.4998 8.25 16.4998V16.4998ZM16.4152 5.6721L13.8563 13.4721C13.7291 13.9036 13.4752 14.2869 13.1274 14.5723C12.7797 14.8577 12.3543 15.032 11.9062 15.0726C11.9678 14.8027 11.9993 14.5267 12 14.2498V6.74985C11.9988 5.75565 11.6033 4.80252 10.9003 4.09952C10.1973 3.39652 9.2442 3.00105 8.25 2.99985H7.86975C8.06334 2.45429 8.45977 2.00433 8.9766 1.74354C9.49343 1.48275 10.0909 1.4312 10.6447 1.59961L14.9092 2.9091C15.4709 3.08243 15.9427 3.46827 16.224 3.9844C16.5054 4.50053 16.574 5.10612 16.4152 5.6721V5.6721ZM9 9.74985C9 10.8373 7.842 12.2931 6.9645 13.0333C6.69489 13.2615 6.35316 13.3866 6 13.3866C5.64684 13.3866 5.30511 13.2615 5.0355 13.0333C4.158 12.2931 3 10.8373 3 9.74985C3 9.35202 3.15804 8.97049 3.43934 8.68919C3.72064 8.40788 4.10218 8.24985 4.5 8.24985C4.89782 8.24985 5.27936 8.40788 5.56066 8.68919C5.84196 8.97049 6 9.35202 6 9.74985C6 9.35202 6.15804 8.97049 6.43934 8.68919C6.72064 8.40788 7.10218 8.24985 7.5 8.24985C7.89782 8.24985 8.27936 8.40788 8.56066 8.68919C8.84196 8.97049 9 9.35202 9 9.74985V9.74985Z" fill="#1DCB9D"/>
</g>
<path d="M7.68672 23.9555V32.6372H6.91523V23.9555H7.68672ZM0.499219 29.8344C0.875196 29.8344 1.28047 29.8296 1.70039 29.8247V25.5376H0.723828V24.9028H5.68477V25.5376H4.69844V29.7124C5.18672 29.6782 5.67012 29.6342 6.13398 29.5805L6.18281 30.1567C4.28828 30.4497 2.19355 30.479 0.58711 30.4887L0.499219 29.8344ZM2.45234 29.81C2.94063 29.8003 3.44355 29.7807 3.94648 29.7563V25.5376H2.45234V29.81ZM16.5633 28.1352V28.77H10.5672V24.7661H16.4754V25.4008H11.3289V28.1352H16.5633ZM9.55156 31.4555V30.811H17.5008V31.4555H9.55156Z" fill="#1DCB9D"/>
<defs>
<clipPath id="clip0_1667_1574">
<rect width="18" height="18" fill="white"/>
</clipPath>
</defs>
</svg>
