<svg width="19" height="34" viewBox="0 0 19 34" fill="none" xmlns="http://www.w3.org/2000/svg">
<g clip-path="url(#clip0_2168_9857)">
<path d="M15.8495 1.59071L11.585 0.281208C10.6437 -0.00547139 9.6275 0.0884534 8.75469 0.542808C7.88188 0.997163 7.22208 1.7757 6.917 2.71121L6.776 3.11546H4.25C3.2558 3.11665 2.30267 3.51212 1.59966 4.21512C0.896661 4.91812 0.501191 5.87126 0.5 6.86545L0.5 14.3654C0.501191 15.3596 0.896661 16.3128 1.59966 17.0158C2.30267 17.7188 3.2558 18.1142 4.25 18.1154H8.75C9.31814 18.1135 9.87833 17.9817 10.3878 17.7304C10.8973 17.479 11.3427 17.1146 11.69 16.6649C11.8612 16.6898 12.0338 16.7028 12.2067 16.7039C13.0121 16.7046 13.796 16.4446 14.4415 15.963C15.087 15.4814 15.5593 14.8039 15.788 14.0317L18.35 6.23245C18.6237 5.28543 18.5151 4.26884 18.0476 3.40097C17.5801 2.5331 16.7909 1.88316 15.8495 1.59071ZM8.75 16.6154H4.25C3.65326 16.6154 3.08097 16.3784 2.65901 15.9564C2.23705 15.5345 2 14.9622 2 14.3654V6.86545C2 6.26871 2.23705 5.69642 2.65901 5.27446C3.08097 4.85251 3.65326 4.61545 4.25 4.61545H8.75C9.34674 4.61545 9.91903 4.85251 10.341 5.27446C10.7629 5.69642 11 6.26871 11 6.86545V14.3654C11 14.9622 10.7629 15.5345 10.341 15.9564C9.91903 16.3784 9.34674 16.6154 8.75 16.6154ZM16.9152 5.7877L14.3563 13.5877C14.2291 14.0192 13.9752 14.4025 13.6274 14.6879C13.2797 14.9733 12.8543 15.1476 12.4062 15.1882C12.4678 14.9183 12.4993 14.6423 12.5 14.3654V6.86545C12.4988 5.87126 12.1033 4.91812 11.4003 4.21512C10.6973 3.51212 9.7442 3.11665 8.75 3.11546H8.36975C8.56334 2.56989 8.95977 2.11993 9.4766 1.85914C9.99343 1.59835 10.5909 1.5468 11.1447 1.71521L15.4093 3.02471C15.9709 3.19803 16.4427 3.58387 16.724 4.1C17.0054 4.61613 17.074 5.22172 16.9152 5.7877ZM9.5 9.86545C9.5 10.9529 8.342 12.4087 7.4645 13.1489C7.19489 13.3771 6.85316 13.5022 6.5 13.5022C6.14684 13.5022 5.80511 13.3771 5.5355 13.1489C4.658 12.4087 3.5 10.9529 3.5 9.86545C3.5 9.46762 3.65804 9.08609 3.93934 8.80479C4.22064 8.52348 4.60218 8.36545 5 8.36545C5.39782 8.36545 5.77936 8.52348 6.06066 8.80479C6.34196 9.08609 6.5 9.46762 6.5 9.86545C6.5 9.46762 6.65804 9.08609 6.93934 8.80479C7.22064 8.52348 7.60218 8.36545 8 8.36545C8.39782 8.36545 8.77936 8.52348 9.06066 8.80479C9.34196 9.08609 9.5 9.46762 9.5 9.86545Z" fill="#C0C0C0"/>
</g>
<path d="M8.18672 24.0703V32.752H7.41523V24.0703H8.18672ZM0.999219 29.9492C1.3752 29.9492 1.78047 29.9443 2.20039 29.9395V25.6523H1.22383V25.0176H6.18477V25.6523H5.19844V29.8271C5.68672 29.793 6.17012 29.749 6.63398 29.6953L6.68281 30.2715C4.78828 30.5645 2.69355 30.5938 1.08711 30.6035L0.999219 29.9492ZM2.95234 29.9248C3.44063 29.915 3.94355 29.8955 4.44648 29.8711V25.6523H2.95234V29.9248ZM17.0633 28.25V28.8848H11.0672V24.8809H16.9754V25.5156H11.8289V28.25H17.0633ZM10.0516 31.5703V30.9258H18.0008V31.5703H10.0516Z" fill="#C0C0C0"/>
<defs>
<clipPath id="clip0_2168_9857">
<rect width="18" height="18" fill="white" transform="translate(0.5 0.115234)"/>
</clipPath>
</defs>
</svg>
