<svg width="18" height="34" viewBox="0 0 18 34" fill="none" xmlns="http://www.w3.org/2000/svg">
<g clip-path="url(#clip0_1667_1565)">
<path d="M17.25 16.5H3.75C3.15326 16.5 2.58097 16.2629 2.15901 15.841C1.73705 15.419 1.5 14.8467 1.5 14.25V0.75C1.5 0.551088 1.42098 0.360322 1.28033 0.21967C1.13968 0.0790176 0.948912 0 0.75 0C0.551088 0 0.360322 0.0790176 0.21967 0.21967C0.0790176 0.360322 0 0.551088 0 0.75L0 14.25C0.00119089 15.2442 0.396661 16.1973 1.09966 16.9003C1.80267 17.6033 2.7558 17.9988 3.75 18H17.25C17.4489 18 17.6397 17.921 17.7803 17.7803C17.921 17.6397 18 17.4489 18 17.25C18 17.0511 17.921 16.8603 17.7803 16.7197C17.6397 16.579 17.4489 16.5 17.25 16.5Z" fill="#1DCB9D"/>
<path d="M4.50012 14.9999C4.69903 14.9999 4.8898 14.9209 5.03045 14.7803C5.1711 14.6396 5.25012 14.4489 5.25012 14.2499V8.99994C5.25012 8.80103 5.1711 8.61026 5.03045 8.46961C4.8898 8.32896 4.69903 8.24994 4.50012 8.24994C4.30121 8.24994 4.11044 8.32896 3.96979 8.46961C3.82914 8.61026 3.75012 8.80103 3.75012 8.99994V14.2499C3.75012 14.4489 3.82914 14.6396 3.96979 14.7803C4.11044 14.9209 4.30121 14.9999 4.50012 14.9999Z" fill="#1DCB9D"/>
<path d="M7.49988 7.5V14.25C7.49988 14.4489 7.5789 14.6397 7.71955 14.7803C7.8602 14.921 8.05097 15 8.24988 15C8.4488 15 8.63956 14.921 8.78022 14.7803C8.92087 14.6397 8.99989 14.4489 8.99989 14.25V7.5C8.99989 7.30109 8.92087 7.11032 8.78022 6.96967C8.63956 6.82902 8.4488 6.75 8.24988 6.75C8.05097 6.75 7.8602 6.82902 7.71955 6.96967C7.5789 7.11032 7.49988 7.30109 7.49988 7.5Z" fill="#1DCB9D"/>
<path d="M11.25 9.75V14.25C11.25 14.4489 11.329 14.6397 11.4697 14.7803C11.6103 14.921 11.8011 15 12 15C12.1989 15 12.3897 14.921 12.5303 14.7803C12.671 14.6397 12.75 14.4489 12.75 14.25V9.75C12.75 9.55109 12.671 9.36032 12.5303 9.21967C12.3897 9.07902 12.1989 9 12 9C11.8011 9 11.6103 9.07902 11.4697 9.21967C11.329 9.36032 11.25 9.55109 11.25 9.75Z" fill="#1DCB9D"/>
<path d="M15.0001 6.74994V14.2499C15.0001 14.4489 15.0791 14.6396 15.2198 14.7803C15.3604 14.9209 15.5512 14.9999 15.7501 14.9999C15.949 14.9999 16.1398 14.9209 16.2805 14.7803C16.4211 14.6396 16.5001 14.4489 16.5001 14.2499V6.74994C16.5001 6.55103 16.4211 6.36026 16.2805 6.21961C16.1398 6.07896 15.949 5.99994 15.7501 5.99994C15.5512 5.99994 15.3604 6.07896 15.2198 6.21961C15.0791 6.36026 15.0001 6.55103 15.0001 6.74994Z" fill="#1DCB9D"/>
<path d="M4.4999 6.74994C4.6988 6.7499 4.88953 6.67085 5.03015 6.53019L7.71965 3.84069C7.8626 3.70451 8.05247 3.62855 8.2499 3.62855C8.44733 3.62855 8.6372 3.70451 8.78015 3.84069L10.4092 5.46969C10.8311 5.8915 11.4033 6.12846 11.9999 6.12846C12.5965 6.12846 13.1687 5.8915 13.5907 5.46969L17.7802 1.28019C17.9168 1.13874 17.9924 0.949286 17.9907 0.752638C17.9889 0.555991 17.9101 0.367881 17.771 0.228825C17.632 0.0897691 17.4438 0.0108924 17.2472 0.00918363C17.0506 0.00747481 16.8611 0.0830706 16.7196 0.219689L12.5302 4.40844C12.3895 4.54904 12.1988 4.62803 11.9999 4.62803C11.801 4.62803 11.6103 4.54904 11.4697 4.40844L9.84065 2.78019C9.41871 2.35838 8.84652 2.12142 8.2499 2.12142C7.65328 2.12142 7.08109 2.35838 6.65915 2.78019L3.96965 5.46969C3.86479 5.57458 3.79339 5.7082 3.76446 5.85367C3.73554 5.99913 3.75039 6.1499 3.80714 6.28693C3.8639 6.42395 3.96 6.54108 4.08331 6.62349C4.20661 6.7059 4.35159 6.74991 4.4999 6.74994V6.74994Z" fill="#1DCB9D"/>
</g>
<path d="M7.41328 24.4243V25.0688C7.41328 25.7426 7.41328 26.5337 7.18379 27.6176H8.4582V28.2524H0.508985V27.6176H6.4123C6.65645 26.5239 6.65645 25.7426 6.65156 25.0688V25.0591H1.51484V24.4243H7.41328ZM1.48555 32.52V29.4536H7.45234V32.52H1.48555ZM2.24727 31.895H6.69063V30.0591H2.24727V31.895ZM17.4617 28.0278V28.6528H15.4891V29.854C16.1336 30.1128 16.49 30.5278 16.4949 31.0844C16.4852 32.0757 15.367 32.6274 13.5066 32.6372C11.6219 32.6274 10.5037 32.0757 10.5086 31.0844C10.5037 30.5132 10.8748 30.0932 11.5535 29.8344V28.6528H9.55156V28.0278H17.4617ZM10.4305 25.7622C10.4305 24.7319 11.6023 24.1313 13.5066 24.1313C15.3963 24.1313 16.5682 24.7319 16.573 25.7622C16.5682 26.7778 15.3963 27.3686 13.5066 27.3735C11.6023 27.3686 10.4305 26.7778 10.4305 25.7622ZM11.2215 25.7622C11.2166 26.3969 12.1004 26.768 13.5066 26.768C14.8982 26.768 15.7869 26.3969 15.7918 25.7622C15.7869 25.1176 14.8982 24.7466 13.5066 24.7466C12.1004 24.7466 11.2166 25.1176 11.2215 25.7622ZM11.2898 31.0844C11.2801 31.685 12.115 32.0268 13.5066 32.0219C14.8836 32.0268 15.7186 31.685 15.7234 31.0844C15.7186 30.4936 14.8836 30.1469 13.5066 30.1372C12.115 30.1469 11.2801 30.4936 11.2898 31.0844ZM12.325 29.6391C12.6766 29.5805 13.0721 29.5512 13.5066 29.5512C13.9559 29.5512 14.3611 29.5854 14.7176 29.644V28.6528H12.325V29.6391Z" fill="#1DCB9D"/>
<defs>
<clipPath id="clip0_1667_1565">
<rect width="18" height="18" fill="white"/>
</clipPath>
</defs>
</svg>
