<svg width="19" height="34" viewBox="0 0 19 34" fill="none" xmlns="http://www.w3.org/2000/svg">
<g clip-path="url(#clip0_1626_2046)">
<path d="M17.75 16.6154H4.25C3.65326 16.6154 3.08097 16.3783 2.65901 15.9564C2.23705 15.5344 2 14.9621 2 14.3654V0.865387C2 0.666475 1.92098 0.475709 1.78033 0.335057C1.63968 0.194405 1.44891 0.115387 1.25 0.115387C1.05109 0.115387 0.860322 0.194405 0.71967 0.335057C0.579018 0.475709 0.5 0.666475 0.5 0.865387L0.5 14.3654C0.501191 15.3596 0.896661 16.3127 1.59966 17.0157C2.30267 17.7187 3.2558 18.1142 4.25 18.1154H17.75C17.9489 18.1154 18.1397 18.0364 18.2803 17.8957C18.421 17.7551 18.5 17.5643 18.5 17.3654C18.5 17.1665 18.421 16.9757 18.2803 16.8351C18.1397 16.6944 17.9489 16.6154 17.75 16.6154Z" fill="#C0C0C0"/>
<path d="M5.00012 15.1153C5.19903 15.1153 5.3898 15.0363 5.53045 14.8957C5.6711 14.755 5.75012 14.5642 5.75012 14.3653V9.11533C5.75012 8.91641 5.6711 8.72565 5.53045 8.585C5.3898 8.44434 5.19903 8.36533 5.00012 8.36533C4.80121 8.36533 4.61044 8.44434 4.46979 8.585C4.32914 8.72565 4.25012 8.91641 4.25012 9.11533V14.3653C4.25012 14.5642 4.32914 14.755 4.46979 14.8957C4.61044 15.0363 4.80121 15.1153 5.00012 15.1153Z" fill="#C0C0C0"/>
<path d="M7.99988 7.61539V14.3654C7.99988 14.5643 8.0789 14.7551 8.21955 14.8957C8.3602 15.0364 8.55097 15.1154 8.74988 15.1154C8.9488 15.1154 9.13956 15.0364 9.28022 14.8957C9.42087 14.7551 9.49989 14.5643 9.49989 14.3654V7.61539C9.49989 7.41647 9.42087 7.22571 9.28022 7.08506C9.13956 6.9444 8.9488 6.86539 8.74988 6.86539C8.55097 6.86539 8.3602 6.9444 8.21955 7.08506C8.0789 7.22571 7.99988 7.41647 7.99988 7.61539Z" fill="#C0C0C0"/>
<path d="M11.75 9.86539V14.3654C11.75 14.5643 11.829 14.7551 11.9697 14.8957C12.1103 15.0364 12.3011 15.1154 12.5 15.1154C12.6989 15.1154 12.8897 15.0364 13.0303 14.8957C13.171 14.7551 13.25 14.5643 13.25 14.3654V9.86539C13.25 9.66647 13.171 9.47571 13.0303 9.33506C12.8897 9.1944 12.6989 9.11539 12.5 9.11539C12.3011 9.11539 12.1103 9.1944 11.9697 9.33506C11.829 9.47571 11.75 9.66647 11.75 9.86539Z" fill="#C0C0C0"/>
<path d="M15.5001 6.86533V14.3653C15.5001 14.5642 15.5791 14.755 15.7198 14.8957C15.8604 15.0363 16.0512 15.1153 16.2501 15.1153C16.449 15.1153 16.6398 15.0363 16.7805 14.8957C16.9211 14.755 17.0001 14.5642 17.0001 14.3653V6.86533C17.0001 6.66641 16.9211 6.47565 16.7805 6.335C16.6398 6.19434 16.449 6.11533 16.2501 6.11533C16.0512 6.11533 15.8604 6.19434 15.7198 6.335C15.5791 6.47565 15.5001 6.66641 15.5001 6.86533Z" fill="#C0C0C0"/>
<path d="M4.9999 6.86533C5.1988 6.86528 5.38953 6.78624 5.53015 6.64558L8.21965 3.95608C8.3626 3.81989 8.55247 3.74393 8.7499 3.74393C8.94733 3.74393 9.1372 3.81989 9.28015 3.95608L10.9092 5.58508C11.3311 6.00689 11.9033 6.24385 12.4999 6.24385C13.0965 6.24385 13.6687 6.00689 14.0907 5.58508L18.2802 1.39558C18.4168 1.25412 18.4924 1.06467 18.4907 0.868025C18.4889 0.671378 18.4101 0.483268 18.271 0.344212C18.132 0.205156 17.9438 0.126279 17.7472 0.124571C17.5506 0.122862 17.3611 0.198458 17.2196 0.335076L13.0302 4.52383C12.8895 4.66443 12.6988 4.74342 12.4999 4.74342C12.301 4.74342 12.1103 4.66443 11.9697 4.52383L10.3407 2.89558C9.91871 2.47377 9.34652 2.23681 8.7499 2.23681C8.15328 2.23681 7.58109 2.47377 7.15915 2.89558L4.46965 5.58508C4.36479 5.68997 4.29339 5.82359 4.26446 5.96905C4.23554 6.11452 4.25039 6.26529 4.30714 6.40232C4.3639 6.53934 4.46 6.65646 4.58331 6.73888C4.70661 6.82129 4.85159 6.86529 4.9999 6.86533V6.86533Z" fill="#C0C0C0"/>
</g>
<path d="M7.91328 24.5397V25.1842C7.91328 25.858 7.91328 26.649 7.68379 27.733H8.9582V28.3678H1.00898V27.733H6.9123C7.15645 26.6393 7.15645 25.858 7.15156 25.1842V25.1744H2.01484V24.5397H7.91328ZM1.98555 32.6354V29.569H7.95234V32.6354H1.98555ZM2.74727 32.0104H7.19063V30.1744H2.74727V32.0104ZM17.9617 28.1432V28.7682H15.9891V29.9694C16.6336 30.2281 16.99 30.6432 16.9949 31.1998C16.9852 32.191 15.867 32.7428 14.0066 32.7526C12.1219 32.7428 11.0037 32.191 11.0086 31.1998C11.0037 30.6285 11.3748 30.2086 12.0535 29.9498V28.7682H10.0516V28.1432H17.9617ZM10.9305 25.8776C10.9305 24.8473 12.1023 24.2467 14.0066 24.2467C15.8963 24.2467 17.0682 24.8473 17.073 25.8776C17.0682 26.8932 15.8963 27.484 14.0066 27.4889C12.1023 27.484 10.9305 26.8932 10.9305 25.8776ZM11.7215 25.8776C11.7166 26.5123 12.6004 26.8834 14.0066 26.8834C15.3982 26.8834 16.2869 26.5123 16.2918 25.8776C16.2869 25.233 15.3982 24.8619 14.0066 24.8619C12.6004 24.8619 11.7166 25.233 11.7215 25.8776ZM11.7898 31.1998C11.7801 31.8004 12.615 32.1422 14.0066 32.1373C15.3836 32.1422 16.2186 31.8004 16.2234 31.1998C16.2186 30.609 15.3836 30.2623 14.0066 30.2526C12.615 30.2623 11.7801 30.609 11.7898 31.1998ZM12.825 29.7545C13.1766 29.6959 13.5721 29.6666 14.0066 29.6666C14.4559 29.6666 14.8611 29.7008 15.2176 29.7594V28.7682H12.825V29.7545Z" fill="#C0C0C0"/>
<defs>
<clipPath id="clip0_1626_2046">
<rect width="18" height="18" fill="white" transform="translate(0.5 0.115387)"/>
</clipPath>
</defs>
</svg>
