<svg width="19" height="34" viewBox="0 0 19 34" fill="none" xmlns="http://www.w3.org/2000/svg">
<g clip-path="url(#clip0_2168_9853)">
<path d="M14.492 0.813277L5.34802 9.95728C4.99877 10.3046 4.7219 10.7178 4.53343 11.1729C4.34495 11.628 4.24862 12.116 4.25001 12.6085V13.6158C4.25001 13.8147 4.32903 14.0055 4.46968 14.1461C4.61034 14.2868 4.8011 14.3658 5.00001 14.3658H6.00726C6.49984 14.3672 6.98779 14.2708 7.44288 14.0824C7.89797 13.8939 8.31116 13.617 8.65852 13.2678L17.8025 4.12378C18.2408 3.6844 18.487 3.08913 18.487 2.46853C18.487 1.84792 18.2408 1.25265 17.8025 0.813277C17.3568 0.387197 16.7639 0.149414 16.1473 0.149414C15.5306 0.149414 14.9378 0.387197 14.492 0.813277V0.813277ZM16.742 3.06328L7.59801 12.2073C7.17511 12.6276 6.60352 12.8642 6.00726 12.8658H5.75001V12.6085C5.75158 12.0123 5.98819 11.4407 6.40851 11.0178L15.5525 1.87378C15.7127 1.72074 15.9257 1.63535 16.1473 1.63535C16.3688 1.63535 16.5818 1.72074 16.742 1.87378C16.8995 2.03166 16.9879 2.24555 16.9879 2.46853C16.9879 2.69151 16.8995 2.90539 16.742 3.06328V3.06328Z" fill="#C0C0C0"/>
<path d="M17.75 6.84948C17.5511 6.84948 17.3603 6.9285 17.2197 7.06916C17.079 7.20981 17 7.40057 17 7.59949V11.3652H14C13.4033 11.3652 12.831 11.6023 12.409 12.0242C11.9871 12.4462 11.75 13.0185 11.75 13.6152V16.6152H4.25C3.65326 16.6152 3.08097 16.3782 2.65901 15.9562C2.23705 15.5343 2 14.962 2 14.3652V3.86523C2 3.2685 2.23705 2.6962 2.65901 2.27424C3.08097 1.85229 3.65326 1.61523 4.25 1.61523H11.0315C11.2304 1.61523 11.4212 1.53622 11.5618 1.39556C11.7025 1.25491 11.7815 1.06415 11.7815 0.865234C11.7815 0.666322 11.7025 0.475557 11.5618 0.334904C11.4212 0.194252 11.2304 0.115234 11.0315 0.115234L4.25 0.115234C3.2558 0.116425 2.30267 0.511896 1.59967 1.2149C0.896662 1.9179 0.501191 2.87104 0.5 3.86523L0.5 14.3652C0.501191 15.3594 0.896662 16.3126 1.59967 17.0156C2.30267 17.7186 3.2558 18.114 4.25 18.1152H12.7573C13.2499 18.1166 13.738 18.0203 14.1932 17.8319C14.6484 17.6434 15.0618 17.3665 15.4093 17.0172L17.4013 15.0237C17.7506 14.6764 18.0275 14.2632 18.2161 13.8081C18.4047 13.3531 18.5012 12.8651 18.5 12.3725V7.59949C18.5 7.40057 18.421 7.20981 18.2803 7.06916C18.1397 6.9285 17.9489 6.84948 17.75 6.84948ZM14.3488 15.9567C14.0473 16.2575 13.666 16.4657 13.25 16.5567V13.6152C13.25 13.4163 13.329 13.2256 13.4697 13.0849C13.6103 12.9443 13.8011 12.8652 14 12.8652H16.9438C16.851 13.2804 16.643 13.6609 16.3438 13.9632L14.3488 15.9567Z" fill="#C0C0C0"/>
</g>
<path d="M8.18672 24.0703V32.752H7.41523V24.0703H8.18672ZM1.11641 30.4961C3.46504 29.3828 4.66621 27.7178 4.83711 25.6426H1.5168V25.0176H5.61836C5.60859 27.5127 4.44648 29.7246 1.53633 31.1211L1.11641 30.4961ZM17.991 28.8555V29.4902H10.0418V28.8555H13.6355V27.9375H11.077V25.8184H16.1941V24.9199H11.0477V24.2949H16.9656V26.3945H11.8387V27.3223H17.1512V27.9375H14.3875V28.8555H17.991ZM10.9305 30.7793V30.1543H17.0145V32.6738H16.243V30.7793H10.9305Z" fill="#C0C0C0"/>
<defs>
<clipPath id="clip0_2168_9853">
<rect width="18" height="18" fill="white" transform="translate(0.5 0.115234)"/>
</clipPath>
</defs>
</svg>
