<svg width="19" height="34" viewBox="0 0 19 34" fill="none" xmlns="http://www.w3.org/2000/svg">
<g clip-path="url(#clip0_1626_2042)">
<path d="M17.8409 6.91707L12.1522 1.22757C11.4481 0.525559 10.4944 0.131348 9.50019 0.131348C8.50595 0.131348 7.55226 0.525559 6.84819 1.22757L1.15944 6.91707C0.949761 7.12541 0.78352 7.37329 0.670354 7.64636C0.557189 7.91942 0.49935 8.21223 0.500192 8.50782V15.8706C0.500192 16.4673 0.737245 17.0396 1.1592 17.4616C1.58116 17.8835 2.15346 18.1206 2.75019 18.1206H16.2502C16.8469 18.1206 17.4192 17.8835 17.8412 17.4616C18.2631 17.0396 18.5002 16.4673 18.5002 15.8706V8.50782C18.501 8.21223 18.4432 7.91942 18.33 7.64636C18.2169 7.37329 18.0506 7.12541 17.8409 6.91707ZM11.7502 16.6206H7.25019V13.6701C7.25019 13.0733 7.48725 12.501 7.9092 12.0791C8.33116 11.6571 8.90346 11.4201 9.50019 11.4201C10.0969 11.4201 10.6692 11.6571 11.0912 12.0791C11.5131 12.501 11.7502 13.0733 11.7502 13.6701V16.6206ZM17.0002 15.8706C17.0002 16.0695 16.9212 16.2602 16.7805 16.4009C16.6399 16.5415 16.4491 16.6206 16.2502 16.6206H13.2502V13.6701C13.2502 12.6755 12.8551 11.7217 12.1518 11.0184C11.4486 10.3152 10.4948 9.92007 9.50019 9.92007C8.50563 9.92007 7.5518 10.3152 6.84854 11.0184C6.14528 11.7217 5.75019 12.6755 5.75019 13.6701V16.6206H2.75019C2.55128 16.6206 2.36051 16.5415 2.21986 16.4009C2.07921 16.2602 2.00019 16.0695 2.00019 15.8706V8.50782C2.00089 8.30905 2.07983 8.11856 2.21994 7.97757L7.90869 2.29032C8.33147 1.86951 8.90369 1.63327 9.50019 1.63327C10.0967 1.63327 10.6689 1.86951 11.0917 2.29032L16.7804 7.97982C16.92 8.12025 16.9989 8.30983 17.0002 8.50782V15.8706Z" fill="#1DCB9D"/>
</g>
<path d="M12.4736 30.1549V32.6354H6.49707V30.1549H12.4736ZM5.53027 29.4908V28.8756H9.10449V28.2067C7.54199 28.1481 6.66309 27.7379 6.66309 26.9811C6.66309 26.1754 7.68359 25.7604 9.48535 25.7506C11.2822 25.7604 12.2979 26.1754 12.2979 26.9811C12.2979 27.7379 11.4238 28.1481 9.86621 28.2067V28.8756H13.4404V29.4908H5.53027ZM5.94043 25.399V24.8033H9.10449V23.944H9.86621V24.8033H12.9814V25.399H5.94043ZM7.25879 32.0397H11.7217V30.7506H7.25879V32.0397ZM7.4834 26.9811C7.47852 27.4254 8.21094 27.6744 9.48535 27.6744C10.7598 27.6744 11.4824 27.4254 11.4873 26.9811C11.4824 26.5319 10.7598 26.2975 9.48535 26.2877C8.21094 26.2975 7.47852 26.5319 7.4834 26.9811Z" fill="#1DCB9D"/>
<defs>
<clipPath id="clip0_1626_2042">
<rect width="18" height="18" fill="white" transform="translate(0.5 0.115387)"/>
</clipPath>
</defs>
</svg>
