<svg width="18" height="34" viewBox="0 0 18 34" fill="none" xmlns="http://www.w3.org/2000/svg">
<g clip-path="url(#clip0_1667_1561)">
<path d="M17.3409 6.80168L11.6521 1.11218C10.9481 0.410172 9.99438 0.0159607 9.00013 0.0159607C8.00589 0.0159607 7.0522 0.410172 6.34813 1.11218L0.659381 6.80168C0.4497 7.01002 0.283459 7.2579 0.170293 7.53097C0.0571275 7.80403 -0.00071073 8.09685 0.00013113 8.39243V15.7552C0.00013113 16.3519 0.237184 16.9242 0.659141 17.3462C1.0811 17.7681 1.65339 18.0052 2.25013 18.0052H15.7501C16.3469 18.0052 16.9192 17.7681 17.3411 17.3462C17.7631 16.9242 18.0001 16.3519 18.0001 15.7552V8.39243C18.001 8.09685 17.9431 7.80403 17.83 7.53097C17.7168 7.2579 17.5506 7.01002 17.3409 6.80168V6.80168ZM11.2501 16.5052H6.75013V13.5547C6.75013 12.9579 6.98719 12.3856 7.40914 11.9637C7.8311 11.5417 8.4034 11.3047 9.00013 11.3047C9.59687 11.3047 10.1692 11.5417 10.5911 11.9637C11.0131 12.3856 11.2501 12.9579 11.2501 13.5547V16.5052ZM16.5001 15.7552C16.5001 15.9541 16.4211 16.1449 16.2805 16.2855C16.1398 16.4262 15.949 16.5052 15.7501 16.5052H12.7501V13.5547C12.7501 12.5601 12.355 11.6063 11.6518 10.903C10.9485 10.1998 9.99469 9.80468 9.00013 9.80468C8.00557 9.80468 7.05174 10.1998 6.34848 10.903C5.64522 11.6063 5.25013 12.5601 5.25013 13.5547V16.5052H2.25013C2.05122 16.5052 1.86045 16.4262 1.7198 16.2855C1.57915 16.1449 1.50013 15.9541 1.50013 15.7552V8.39243C1.50083 8.19366 1.57977 8.00317 1.71988 7.86218L7.40863 2.17493C7.83141 1.75413 8.40363 1.51789 9.00013 1.51789C9.59663 1.51789 10.1689 1.75413 10.5916 2.17493L16.2804 7.86443C16.4199 8.00487 16.4988 8.19444 16.5001 8.39243V15.7552Z" fill="#C0C0C0"/>
</g>
<path d="M11.9736 30.0395V32.52H5.99707V30.0395H11.9736ZM5.03027 29.3755V28.7602H8.60449V28.0913C7.04199 28.0327 6.16309 27.6225 6.16309 26.8657C6.16309 26.06 7.18359 25.645 8.98535 25.6352C10.7822 25.645 11.7979 26.06 11.7979 26.8657C11.7979 27.6225 10.9238 28.0327 9.36621 28.0913V28.7602H12.9404V29.3755H5.03027ZM5.44043 25.2837V24.688H8.60449V23.8286H9.36621V24.688H12.4814V25.2837H5.44043ZM6.75879 31.9243H11.2217V30.6352H6.75879V31.9243ZM6.9834 26.8657C6.97852 27.31 7.71094 27.5591 8.98535 27.5591C10.2598 27.5591 10.9824 27.31 10.9873 26.8657C10.9824 26.4165 10.2598 26.1821 8.98535 26.1723C7.71094 26.1821 6.97852 26.4165 6.9834 26.8657Z" fill="#C0C0C0"/>
<defs>
<clipPath id="clip0_1667_1561">
<rect width="18" height="18" fill="white"/>
</clipPath>
</defs>
</svg>
