<svg width="45" height="34" viewBox="0 0 45 34" fill="none" xmlns="http://www.w3.org/2000/svg">
<g clip-path="url(#clip0_1626_2058)">
<path d="M22.5001 9.11533C23.3901 9.11533 24.2601 8.85141 25.0001 8.35694C25.7401 7.86247 26.3169 7.15967 26.6575 6.3374C26.9981 5.51514 27.0872 4.61034 26.9136 3.73742C26.74 2.86451 26.3114 2.06268 25.682 1.43335C25.0527 0.804011 24.2509 0.375428 23.378 0.201794C22.5051 0.0281607 21.6003 0.117276 20.778 0.45787C19.9557 0.798464 19.2529 1.37524 18.7584 2.11526C18.264 2.85528 18.0001 3.72531 18.0001 4.61533C18.0013 5.80844 18.4757 6.95234 19.3194 7.79599C20.1631 8.63965 21.307 9.11414 22.5001 9.11533ZM22.5001 1.61533C23.0934 1.61533 23.6734 1.79127 24.1668 2.12092C24.6601 2.45056 25.0446 2.9191 25.2717 3.46728C25.4988 4.01546 25.5582 4.61866 25.4424 5.2006C25.3267 5.78254 25.0409 6.31709 24.6214 6.73665C24.2018 7.15621 23.6673 7.44193 23.0853 7.55768C22.5034 7.67344 21.9002 7.61403 21.352 7.38697C20.8038 7.1599 20.3353 6.77539 20.0057 6.28204C19.676 5.78869 19.5001 5.20867 19.5001 4.61533C19.5001 3.81968 19.8161 3.05662 20.3787 2.49401C20.9413 1.9314 21.7044 1.61533 22.5001 1.61533V1.61533Z" fill="#C0C0C0"/>
<path d="M22.5 10.6158C20.7104 10.6178 18.9947 11.3296 17.7292 12.5951C16.4638 13.8605 15.752 15.5762 15.75 17.3658C15.75 17.5648 15.829 17.7555 15.9697 17.8962C16.1103 18.0368 16.3011 18.1158 16.5 18.1158C16.6989 18.1158 16.8897 18.0368 17.0303 17.8962C17.171 17.7555 17.25 17.5648 17.25 17.3658C17.25 15.9735 17.8031 14.6381 18.7877 13.6535C19.7723 12.669 21.1076 12.1158 22.5 12.1158C23.8924 12.1158 25.2277 12.669 26.2123 13.6535C27.1969 14.6381 27.75 15.9735 27.75 17.3658C27.75 17.5648 27.829 17.7555 27.9697 17.8962C28.1103 18.0368 28.3011 18.1158 28.5 18.1158C28.6989 18.1158 28.8897 18.0368 29.0303 17.8962C29.171 17.7555 29.25 17.5648 29.25 17.3658C29.248 15.5762 28.5362 13.8605 27.2708 12.5951C26.0053 11.3296 24.2896 10.6178 22.5 10.6158V10.6158Z" fill="#C0C0C0"/>
</g>
<path d="M4.81041 24.9498V30.5455H0.806507V24.9498H4.81041ZM1.54869 29.9205H4.04869V25.5651H1.54869V29.9205ZM6.40221 32.7526V24.0709H7.16393V27.5377H8.61901V28.2018H7.16393V32.7526H6.40221ZM16.646 24.0709V32.7721H15.8745V24.0709H16.646ZM9.81002 27.7721C9.81491 25.9264 10.7329 24.7496 12.0268 24.7448C13.3159 24.7496 14.2485 25.9264 14.2436 27.7721C14.2485 29.6227 13.3159 30.7946 12.0268 30.7897C10.7329 30.7946 9.81491 29.6227 9.81002 27.7721ZM10.5522 27.7721C10.5522 29.1832 11.1577 30.111 12.0268 30.1061C12.9008 30.111 13.5014 29.1832 13.5014 27.7721C13.5014 26.361 12.9008 25.4332 12.0268 25.4283C11.1577 25.4332 10.5522 26.361 10.5522 27.7721ZM26.001 24.0709V32.7526H25.2589V24.0709H26.001ZM18.4327 29.9498C18.7012 29.9498 19.0137 29.9498 19.3506 29.9449V25.819H18.6182V25.1842H22.6124V25.819H21.8799V29.8424C22.2071 29.8131 22.5196 29.7838 22.8077 29.7448L22.8565 30.3112C21.4844 30.5651 19.6631 30.609 18.5303 30.6041L18.4327 29.9498ZM20.0538 29.9303C20.4151 29.9205 20.796 29.9059 21.1671 29.8864V25.819H20.0538V29.9303ZM22.3585 28.0651V27.3717H23.5694V24.2858H24.3018V32.2936H23.5694V28.0651H22.3585ZM34.7311 24.0709V32.7721H33.9596V24.0709H34.7311ZM27.8952 27.7721C27.9001 25.9264 28.818 24.7496 30.112 24.7448C31.401 24.7496 32.3337 25.9264 32.3288 27.7721C32.3337 29.6227 31.401 30.7946 30.112 30.7897C28.818 30.7946 27.9001 29.6227 27.8952 27.7721ZM28.6374 27.7721C28.6374 29.1832 29.2428 30.111 30.112 30.1061C30.986 30.111 31.5866 29.1832 31.5866 27.7721C31.5866 26.361 30.986 25.4332 30.112 25.4283C29.2428 25.4332 28.6374 26.361 28.6374 27.7721ZM39.721 26.7369C39.7258 28.2115 40.7952 29.7106 42.0745 30.2623L41.6448 30.8678C40.6292 30.4088 39.7551 29.4078 39.3499 28.2067C38.9446 29.4811 38.0657 30.5846 37.0745 31.0826L36.6155 30.4772C37.8606 29.8815 38.9446 28.2408 38.9495 26.7369V25.6041H36.8987V24.9694H41.7913V25.6041H39.721V26.7369ZM43.0022 32.7526V24.0709H43.7737V32.7526H43.0022Z" fill="#C0C0C0"/>
<defs>
<clipPath id="clip0_1626_2058">
<rect width="18" height="18" fill="white" transform="translate(13.5001 0.115387)"/>
</clipPath>
</defs>
</svg>
