<svg width="45" height="34" viewBox="0 0 45 34" fill="none" xmlns="http://www.w3.org/2000/svg">
<g clip-path="url(#clip0_1667_1582)">
<path d="M22.5 8.99994C23.39 8.99994 24.26 8.73602 25.0001 8.24155C25.7401 7.74709 26.3169 7.04428 26.6575 6.22202C26.9981 5.39975 27.0872 4.49495 26.9135 3.62203C26.7399 2.74912 26.3113 1.9473 25.682 1.31796C25.0526 0.688624 24.2508 0.260041 23.3779 0.0864072C22.505 -0.0872263 21.6002 0.00188875 20.7779 0.342483C19.9557 0.683077 19.2529 1.25985 18.7584 1.99987C18.2639 2.7399 18 3.60993 18 4.49994C18.0012 5.69305 18.4757 6.83695 19.3193 7.68061C20.163 8.52426 21.3069 8.99875 22.5 8.99994ZM22.5 1.49994C23.0933 1.49994 23.6734 1.67589 24.1667 2.00553C24.6601 2.33518 25.0446 2.80371 25.2716 3.35189C25.4987 3.90007 25.5581 4.50327 25.4424 5.08521C25.3266 5.66716 25.0409 6.2017 24.6213 6.62126C24.2018 7.04082 23.6672 7.32654 23.0853 7.4423C22.5033 7.55805 21.9001 7.49864 21.3519 7.27158C20.8038 7.04452 20.3352 6.66 20.0056 6.16665C19.6759 5.6733 19.5 5.09329 19.5 4.49994C19.5 3.70429 19.8161 2.94123 20.3787 2.37862C20.9413 1.81601 21.7044 1.49994 22.5 1.49994V1.49994Z" fill="#1DCB9D"/>
<path d="M22.4999 10.5005C20.7103 10.5024 18.9946 11.2142 17.7292 12.4797C16.4637 13.7451 15.7519 15.4609 15.7499 17.2505C15.7499 17.4494 15.829 17.6401 15.9696 17.7808C16.1103 17.9214 16.301 18.0005 16.4999 18.0005C16.6989 18.0005 16.8896 17.9214 17.0303 17.7808C17.1709 17.6401 17.2499 17.4494 17.2499 17.2505C17.2499 15.8581 17.8031 14.5227 18.7876 13.5381C19.7722 12.5536 21.1076 12.0005 22.4999 12.0005C23.8923 12.0005 25.2277 12.5536 26.2122 13.5381C27.1968 14.5227 27.7499 15.8581 27.7499 17.2505C27.7499 17.4494 27.829 17.6401 27.9696 17.7808C28.1103 17.9214 28.301 18.0005 28.4999 18.0005C28.6989 18.0005 28.8896 17.9214 29.0303 17.7808C29.1709 17.6401 29.2499 17.4494 29.2499 17.2505C29.248 15.4609 28.5362 13.7451 27.2707 12.4797C26.0053 11.2142 24.2895 10.5024 22.4999 10.5005V10.5005Z" fill="#1DCB9D"/>
</g>
<path d="M4.81035 24.8344V30.4301H0.806446V24.8344H4.81035ZM1.54863 29.8051H4.04863V25.4497H1.54863V29.8051ZM6.40215 32.6372V23.9555H7.16387V27.4223H8.61895V28.0864H7.16387V32.6372H6.40215ZM16.6459 23.9555V32.6567H15.8744V23.9555H16.6459ZM9.80996 27.6567C9.81484 25.811 10.7328 24.6342 12.0268 24.6294C13.3158 24.6342 14.2484 25.811 14.2436 27.6567C14.2484 29.5073 13.3158 30.6792 12.0268 30.6743C10.7328 30.6792 9.81484 29.5073 9.80996 27.6567ZM10.5521 27.6567C10.5521 29.0678 11.1576 29.9956 12.0268 29.9907C12.9008 29.9956 13.5014 29.0678 13.5014 27.6567C13.5014 26.2456 12.9008 25.3178 12.0268 25.313C11.1576 25.3178 10.5521 26.2456 10.5521 27.6567ZM26.001 23.9555V32.6372H25.2588V23.9555H26.001ZM18.4326 29.8344C18.7012 29.8344 19.0137 29.8344 19.3506 29.8296V25.7036H18.6182V25.0688H22.6123V25.7036H21.8799V29.727C22.207 29.6977 22.5195 29.6684 22.8076 29.6294L22.8564 30.1958C21.4844 30.4497 19.6631 30.4936 18.5303 30.4887L18.4326 29.8344ZM20.0537 29.8149C20.415 29.8051 20.7959 29.7905 21.167 29.771V25.7036H20.0537V29.8149ZM22.3584 27.9497V27.2563H23.5693V24.1704H24.3018V32.1782H23.5693V27.9497H22.3584ZM34.7311 23.9555V32.6567H33.9596V23.9555H34.7311ZM27.8951 27.6567C27.9 25.811 28.818 24.6342 30.1119 24.6294C31.401 24.6342 32.3336 25.811 32.3287 27.6567C32.3336 29.5073 31.401 30.6792 30.1119 30.6743C28.818 30.6792 27.9 29.5073 27.8951 27.6567ZM28.6373 27.6567C28.6373 29.0678 29.2428 29.9956 30.1119 29.9907C30.9859 29.9956 31.5865 29.0678 31.5865 27.6567C31.5865 26.2456 30.9859 25.3178 30.1119 25.313C29.2428 25.3178 28.6373 26.2456 28.6373 27.6567ZM39.7209 26.6216C39.7258 28.0962 40.7951 29.5952 42.0744 30.1469L41.6447 30.7524C40.6291 30.2934 39.7551 29.2924 39.3498 28.0913C38.9445 29.3657 38.0656 30.4692 37.0744 30.9673L36.6154 30.3618C37.8605 29.7661 38.9445 28.1255 38.9494 26.6216V25.4887H36.8986V24.854H41.7912V25.4887H39.7209V26.6216ZM43.0021 32.6372V23.9555H43.7736V32.6372H43.0021Z" fill="#1DCB9D"/>
<defs>
<clipPath id="clip0_1667_1582">
<rect width="18" height="18" fill="white" transform="translate(13.5)"/>
</clipPath>
</defs>
</svg>
