<svg width="37" height="34" viewBox="0 0 37 34" fill="none" xmlns="http://www.w3.org/2000/svg">
<g clip-path="url(#clip0_2168_9861)">
<path d="M22.6252 1.55273C21.7807 1.56587 20.9546 1.80162 20.2303 2.23619C19.506 2.67075 18.9092 3.28874 18.5002 4.02773C18.0912 3.28874 17.4944 2.67075 16.7701 2.23619C16.0459 1.80162 15.2198 1.56587 14.3752 1.55273C13.0289 1.61123 11.7605 2.20018 10.847 3.19091C9.93361 4.18164 9.4494 5.49363 9.50021 6.84023C9.50021 10.2505 13.0897 13.975 16.1002 16.5002C16.7724 17.0651 17.6222 17.3748 18.5002 17.3748C19.3782 17.3748 20.228 17.0651 20.9002 16.5002C23.9107 13.975 27.5002 10.2505 27.5002 6.84023C27.551 5.49363 27.0668 4.18164 26.1534 3.19091C25.2399 2.20018 23.9715 1.61123 22.6252 1.55273ZM19.9365 15.3527C19.5344 15.6913 19.0258 15.8769 18.5002 15.8769C17.9746 15.8769 17.466 15.6913 17.064 15.3527C13.2105 12.1195 11.0002 9.01748 11.0002 6.84023C10.9489 5.89127 11.275 4.96053 11.9072 4.25101C12.5395 3.54149 13.4266 3.11075 14.3752 3.05273C15.3238 3.11075 16.2109 3.54149 16.8432 4.25101C17.4754 4.96053 17.8015 5.89127 17.7502 6.84023C17.7502 7.03915 17.8292 7.22991 17.9699 7.37056C18.1105 7.51122 18.3013 7.59023 18.5002 7.59023C18.6991 7.59023 18.8899 7.51122 19.0305 7.37056C19.1712 7.22991 19.2502 7.03915 19.2502 6.84023C19.1989 5.89127 19.525 4.96053 20.1572 4.25101C20.7895 3.54149 21.6766 3.11075 22.6252 3.05273C23.5738 3.11075 24.4609 3.54149 25.0932 4.25101C25.7254 4.96053 26.0515 5.89127 26.0002 6.84023C26.0002 9.01748 23.79 12.1195 19.9365 15.3497V15.3527Z" fill="#C0C0C0"/>
</g>
<path d="M8.90586 29.0508V29.6953H5.28281V32.752H4.53086V29.6953H0.95664V29.0508H8.90586ZM1.85508 26.3359C1.85996 25.1592 3.08555 24.4268 4.91172 24.4219C6.73301 24.4268 7.96836 25.1592 7.96836 26.3359C7.96836 27.4932 6.73301 28.2256 4.91172 28.2207C3.08555 28.2256 1.85996 27.4932 1.85508 26.3359ZM2.64609 26.3359C2.63633 27.1074 3.55918 27.6055 4.91172 27.6055C6.26426 27.6055 7.18223 27.1074 7.18711 26.3359C7.18223 25.5498 6.26426 25.0469 4.91172 25.0469C3.55918 25.0469 2.63633 25.5498 2.64609 26.3359ZM17.177 24.0703V32.7715H16.4152V24.0703H17.177ZM10.4973 25.5156V24.8809H14.5402V27.9668H11.298V30.0176C12.7385 30.0225 14.0227 29.9541 15.5754 29.7051L15.6535 30.3496C14.0568 30.5986 12.7385 30.6621 11.2395 30.6621H10.5168V27.3418H13.7687V25.5156H10.4973ZM25.7703 24.0703V27.6055H27.1766V28.25H25.7703V32.752H25.0086V24.0703H25.7703ZM19.1102 30.4961C21.3514 29.3828 22.5721 27.708 22.7479 25.6523H19.5105V25.0078H23.5242C23.5193 27.4639 22.367 29.7051 19.5398 31.1016L19.1102 30.4961ZM35.3012 24.4316V25.0566H32.5473C32.5619 26.043 34.0316 26.8242 35.5648 27L35.2816 27.6055C33.8607 27.4248 32.5277 26.79 32.0492 25.8232C31.5707 26.79 30.2475 27.4248 28.8266 27.6055L28.5434 27C30.0668 26.8242 31.5365 26.043 31.5512 25.0566H28.8168V24.4316H35.3012ZM28.0941 29.0703V28.4355H31.6684V27.1172H32.4203V28.4355H36.0336V29.0703H28.0941ZM28.973 30.5547V29.9297H35.0277V32.752H34.2563V30.5547H28.973Z" fill="#C0C0C0"/>
<defs>
<clipPath id="clip0_2168_9861">
<rect width="18" height="18" fill="white" transform="translate(9.5 0.115234)"/>
</clipPath>
</defs>
</svg>
