<svg width="36" height="34" viewBox="0 0 36 34" fill="none" xmlns="http://www.w3.org/2000/svg">
<g clip-path="url(#clip0_2233_9640)">
<path d="M22.1252 1.4375C21.2807 1.45064 20.4546 1.68639 19.7303 2.12095C19.006 2.55552 18.4092 3.1735 18.0002 3.9125C17.5912 3.1735 16.9944 2.55552 16.2701 2.12095C15.5459 1.68639 14.7198 1.45064 13.8752 1.4375C12.5289 1.49599 11.2605 2.08494 10.347 3.07567C9.43361 4.06641 8.9494 5.37839 9.00021 6.725C9.00021 10.1353 12.5897 13.8598 15.6002 16.385C16.2724 16.9498 17.1222 17.2595 18.0002 17.2595C18.8782 17.2595 19.728 16.9498 20.4002 16.385C23.4107 13.8598 27.0002 10.1353 27.0002 6.725C27.051 5.37839 26.5668 4.06641 25.6534 3.07567C24.7399 2.08494 23.4715 1.49599 22.1252 1.4375ZM19.4365 15.2375C19.0345 15.576 18.5258 15.7617 18.0002 15.7617C17.4746 15.7617 16.966 15.576 16.564 15.2375C12.7105 12.0042 10.5002 8.90225 10.5002 6.725C10.4489 5.77604 10.775 4.8453 11.4072 4.13577C12.0395 3.42625 12.9266 2.99551 13.8752 2.9375C14.8238 2.99551 15.7109 3.42625 16.3432 4.13577C16.9754 4.8453 17.3015 5.77604 17.2502 6.725C17.2502 6.92391 17.3292 7.11468 17.4699 7.25533C17.6105 7.39598 17.8013 7.475 18.0002 7.475C18.1991 7.475 18.3899 7.39598 18.5305 7.25533C18.6712 7.11468 18.7502 6.92391 18.7502 6.725C18.6989 5.77604 19.025 4.8453 19.6572 4.13577C20.2895 3.42625 21.1766 2.99551 22.1252 2.9375C23.0738 2.99551 23.9609 3.42625 24.5932 4.13577C25.2254 4.8453 25.5515 5.77604 25.5002 6.725C25.5002 8.90225 23.29 12.0042 19.4365 15.2345V15.2375Z" fill="#1DCB9D"/>
</g>
<path d="M8.40586 28.9355V29.5801H4.78281V32.6367H4.03086V29.5801H0.45664V28.9355H8.40586ZM1.35508 26.2207C1.35996 25.0439 2.58555 24.3115 4.41172 24.3066C6.23301 24.3115 7.46836 25.0439 7.46836 26.2207C7.46836 27.3779 6.23301 28.1104 4.41172 28.1055C2.58555 28.1104 1.35996 27.3779 1.35508 26.2207ZM2.14609 26.2207C2.13633 26.9922 3.05918 27.4902 4.41172 27.4902C5.76426 27.4902 6.68223 26.9922 6.68711 26.2207C6.68223 25.4346 5.76426 24.9316 4.41172 24.9316C3.05918 24.9316 2.13633 25.4346 2.14609 26.2207ZM16.677 23.9551V32.6562H15.9152V23.9551H16.677ZM9.99726 25.4004V24.7656H14.0402V27.8516H10.798V29.9023C12.2385 29.9072 13.5227 29.8389 15.0754 29.5898L15.1535 30.2344C13.5568 30.4834 12.2385 30.5469 10.7395 30.5469H10.0168V27.2266H13.2687V25.4004H9.99726ZM25.2703 23.9551V27.4902H26.6766V28.1348H25.2703V32.6367H24.5086V23.9551H25.2703ZM18.6102 30.3809C20.8514 29.2676 22.0721 27.5928 22.2479 25.5371H19.0105V24.8926H23.0242C23.0193 27.3486 21.867 29.5898 19.0398 30.9863L18.6102 30.3809ZM34.8012 24.3164V24.9414H32.0473C32.0619 25.9277 33.5316 26.709 35.0648 26.8848L34.7816 27.4902C33.3607 27.3096 32.0277 26.6748 31.5492 25.708C31.0707 26.6748 29.7475 27.3096 28.3266 27.4902L28.0434 26.8848C29.5668 26.709 31.0365 25.9277 31.0512 24.9414H28.3168V24.3164H34.8012ZM27.5941 28.9551V28.3203H31.1684V27.002H31.9203V28.3203H35.5336V28.9551H27.5941ZM28.473 30.4395V29.8145H34.5277V32.6367H33.7563V30.4395H28.473Z" fill="#1DCB9D"/>
<defs>
<clipPath id="clip0_2233_9640">
<rect width="18" height="18" fill="white" transform="translate(9)"/>
</clipPath>
</defs>
</svg>
