<svg width="335" height="92" viewBox="0 0 335 92" fill="none" xmlns="http://www.w3.org/2000/svg">
<g opacity="0.9">
<rect width="335" height="92" rx="8" fill="#4FBEAD"/>
<path d="M37.4365 59.1982C40.802 59.1982 43.5303 56.47 43.5303 53.1045C43.5303 49.739 40.802 47.0107 37.4365 47.0107C34.071 47.0107 31.3428 49.739 31.3428 53.1045C31.3428 56.47 34.071 59.1982 37.4365 59.1982Z" fill="url(#paint0_linear_2616_16502)"/>
<path d="M37.4365 59.1982C40.802 59.1982 43.5303 56.47 43.5303 53.1045C43.5303 49.739 40.802 47.0107 37.4365 47.0107C34.071 47.0107 31.3428 49.739 31.3428 53.1045C31.3428 56.47 34.071 59.1982 37.4365 59.1982Z" fill="url(#paint1_radial_2616_16502)"/>
<g filter="url(#filter0_f_2616_16502)">
<path d="M37.4365 56.8913C39.5279 56.8913 41.2233 55.1959 41.2233 53.1045C41.2233 51.0131 39.5279 49.3176 37.4365 49.3176C35.3451 49.3176 33.6497 51.0131 33.6497 53.1045C33.6497 55.1959 35.3451 56.8913 37.4365 56.8913Z" fill="url(#paint2_radial_2616_16502)"/>
</g>
<path d="M73.0615 59.1982C76.427 59.1982 79.1553 56.47 79.1553 53.1045C79.1553 49.739 76.427 47.0107 73.0615 47.0107C69.696 47.0107 66.9678 49.739 66.9678 53.1045C66.9678 56.47 69.696 59.1982 73.0615 59.1982Z" fill="url(#paint3_linear_2616_16502)"/>
<path d="M73.0615 59.1982C76.427 59.1982 79.1553 56.47 79.1553 53.1045C79.1553 49.739 76.427 47.0107 73.0615 47.0107C69.696 47.0107 66.9678 49.739 66.9678 53.1045C66.9678 56.47 69.696 59.1982 73.0615 59.1982Z" fill="url(#paint4_radial_2616_16502)"/>
<path d="M73.0615 59.1982C76.427 59.1982 79.1553 56.47 79.1553 53.1045C79.1553 49.739 76.427 47.0107 73.0615 47.0107C69.696 47.0107 66.9678 49.739 66.9678 53.1045C66.9678 56.47 69.696 59.1982 73.0615 59.1982Z" fill="url(#paint5_radial_2616_16502)"/>
<path d="M73.0615 59.1982C76.427 59.1982 79.1553 56.47 79.1553 53.1045C79.1553 49.739 76.427 47.0107 73.0615 47.0107C69.696 47.0107 66.9678 49.739 66.9678 53.1045C66.9678 56.47 69.696 59.1982 73.0615 59.1982Z" fill="url(#paint6_radial_2616_16502)"/>
<g filter="url(#filter1_f_2616_16502)">
<path d="M73.0616 57.0071C75.217 57.0071 76.9643 55.2598 76.9643 53.1044C76.9643 50.949 75.217 49.2017 73.0616 49.2017C70.9061 49.2017 69.1588 50.949 69.1588 53.1044C69.1588 55.2598 70.9061 57.0071 73.0616 57.0071Z" fill="url(#paint7_radial_2616_16502)"/>
</g>
<g filter="url(#filter2_ii_2616_16502)">
<path d="M68.8037 26.7833C65.8955 24.6081 62.4134 23.4268 58.8548 23.4268H51.7183C48.1597 23.4268 44.6776 24.6081 41.7694 26.7833C36.8141 30.5149 34.1356 36.7218 34.7478 43.0786L36.4315 58.2864C36.9863 64.1744 40.8894 69.1249 46.3039 70.8126C52.1584 72.6315 58.4147 72.6315 64.2693 70.8126C69.6838 69.1249 73.5868 64.1744 74.1416 58.2864L75.8253 43.0786C76.4375 36.7218 73.759 30.5149 68.8037 26.7833Z" fill="url(#paint8_linear_2616_16502)"/>
<path d="M68.8037 26.7833C65.8955 24.6081 62.4134 23.4268 58.8548 23.4268H51.7183C48.1597 23.4268 44.6776 24.6081 41.7694 26.7833C36.8141 30.5149 34.1356 36.7218 34.7478 43.0786L36.4315 58.2864C36.9863 64.1744 40.8894 69.1249 46.3039 70.8126C52.1584 72.6315 58.4147 72.6315 64.2693 70.8126C69.6838 69.1249 73.5868 64.1744 74.1416 58.2864L75.8253 43.0786C76.4375 36.7218 73.759 30.5149 68.8037 26.7833Z" fill="url(#paint9_linear_2616_16502)"/>
<path d="M68.8037 26.7833C65.8955 24.6081 62.4134 23.4268 58.8548 23.4268H51.7183C48.1597 23.4268 44.6776 24.6081 41.7694 26.7833C36.8141 30.5149 34.1356 36.7218 34.7478 43.0786L36.4315 58.2864C36.9863 64.1744 40.8894 69.1249 46.3039 70.8126C52.1584 72.6315 58.4147 72.6315 64.2693 70.8126C69.6838 69.1249 73.5868 64.1744 74.1416 58.2864L75.8253 43.0786C76.4375 36.7218 73.759 30.5149 68.8037 26.7833Z" fill="url(#paint10_linear_2616_16502)"/>
<path d="M68.8037 26.7833C65.8955 24.6081 62.4134 23.4268 58.8548 23.4268H51.7183C48.1597 23.4268 44.6776 24.6081 41.7694 26.7833C36.8141 30.5149 34.1356 36.7218 34.7478 43.0786L36.4315 58.2864C36.9863 64.1744 40.8894 69.1249 46.3039 70.8126C52.1584 72.6315 58.4147 72.6315 64.2693 70.8126C69.6838 69.1249 73.5868 64.1744 74.1416 58.2864L75.8253 43.0786C76.4375 36.7218 73.759 30.5149 68.8037 26.7833Z" fill="url(#paint11_radial_2616_16502)"/>
<path d="M68.8037 26.7833C65.8955 24.6081 62.4134 23.4268 58.8548 23.4268H51.7183C48.1597 23.4268 44.6776 24.6081 41.7694 26.7833C36.8141 30.5149 34.1356 36.7218 34.7478 43.0786L36.4315 58.2864C36.9863 64.1744 40.8894 69.1249 46.3039 70.8126C52.1584 72.6315 58.4147 72.6315 64.2693 70.8126C69.6838 69.1249 73.5868 64.1744 74.1416 58.2864L75.8253 43.0786C76.4375 36.7218 73.759 30.5149 68.8037 26.7833Z" fill="url(#paint12_radial_2616_16502)"/>
<path d="M68.8037 26.7833C65.8955 24.6081 62.4134 23.4268 58.8548 23.4268H51.7183C48.1597 23.4268 44.6776 24.6081 41.7694 26.7833C36.8141 30.5149 34.1356 36.7218 34.7478 43.0786L36.4315 58.2864C36.9863 64.1744 40.8894 69.1249 46.3039 70.8126C52.1584 72.6315 58.4147 72.6315 64.2693 70.8126C69.6838 69.1249 73.5868 64.1744 74.1416 58.2864L75.8253 43.0786C76.4375 36.7218 73.759 30.5149 68.8037 26.7833Z" fill="url(#paint13_radial_2616_16502)"/>
<path d="M68.8037 26.7833C65.8955 24.6081 62.4134 23.4268 58.8548 23.4268H51.7183C48.1597 23.4268 44.6776 24.6081 41.7694 26.7833C36.8141 30.5149 34.1356 36.7218 34.7478 43.0786L36.4315 58.2864C36.9863 64.1744 40.8894 69.1249 46.3039 70.8126C52.1584 72.6315 58.4147 72.6315 64.2693 70.8126C69.6838 69.1249 73.5868 64.1744 74.1416 58.2864L75.8253 43.0786C76.4375 36.7218 73.759 30.5149 68.8037 26.7833Z" fill="url(#paint14_radial_2616_16502)"/>
<path d="M68.8037 26.7833C65.8955 24.6081 62.4134 23.4268 58.8548 23.4268H51.7183C48.1597 23.4268 44.6776 24.6081 41.7694 26.7833C36.8141 30.5149 34.1356 36.7218 34.7478 43.0786L36.4315 58.2864C36.9863 64.1744 40.8894 69.1249 46.3039 70.8126C52.1584 72.6315 58.4147 72.6315 64.2693 70.8126C69.6838 69.1249 73.5868 64.1744 74.1416 58.2864L75.8253 43.0786C76.4375 36.7218 73.759 30.5149 68.8037 26.7833Z" fill="url(#paint15_radial_2616_16502)"/>
<path d="M68.8037 26.7833C65.8955 24.6081 62.4134 23.4268 58.8548 23.4268H51.7183C48.1597 23.4268 44.6776 24.6081 41.7694 26.7833C36.8141 30.5149 34.1356 36.7218 34.7478 43.0786L36.4315 58.2864C36.9863 64.1744 40.8894 69.1249 46.3039 70.8126C52.1584 72.6315 58.4147 72.6315 64.2693 70.8126C69.6838 69.1249 73.5868 64.1744 74.1416 58.2864L75.8253 43.0786C76.4375 36.7218 73.759 30.5149 68.8037 26.7833Z" fill="url(#paint16_radial_2616_16502)"/>
</g>
<path d="M68.8037 26.7833C65.8955 24.6081 62.4134 23.4268 58.8548 23.4268H51.7183C48.1597 23.4268 44.6776 24.6081 41.7694 26.7833C36.8141 30.5149 34.1356 36.7218 34.7478 43.0786L36.4315 58.2864C36.9863 64.1744 40.8894 69.1249 46.3039 70.8126C52.1584 72.6315 58.4147 72.6315 64.2693 70.8126C69.6838 69.1249 73.5868 64.1744 74.1416 58.2864L75.8253 43.0786C76.4375 36.7218 73.759 30.5149 68.8037 26.7833Z" fill="url(#paint17_linear_2616_16502)"/>
<path d="M68.8037 26.7833C65.8955 24.6081 62.4134 23.4268 58.8548 23.4268H51.7183C48.1597 23.4268 44.6776 24.6081 41.7694 26.7833C36.8141 30.5149 34.1356 36.7218 34.7478 43.0786L36.4315 58.2864C36.9863 64.1744 40.8894 69.1249 46.3039 70.8126C52.1584 72.6315 58.4147 72.6315 64.2693 70.8126C69.6838 69.1249 73.5868 64.1744 74.1416 58.2864L75.8253 43.0786C76.4375 36.7218 73.759 30.5149 68.8037 26.7833Z" fill="url(#paint18_radial_2616_16502)"/>
<g filter="url(#filter3_f_2616_16502)">
<path d="M60.8756 59.5634L60.8756 59.5634L60.8747 59.5639C59.2237 60.4242 57.294 60.9293 55.234 60.9293C53.1739 60.9293 51.2445 60.4241 49.6313 59.5643C49.0027 59.2264 48.3337 59.9452 48.7302 60.5556C50.1062 62.7028 52.5191 64.1282 55.2527 64.1282C57.9866 64.1282 60.3806 62.7025 61.775 60.5558L61.7754 60.5553C62.1527 59.9637 61.5033 59.247 60.8756 59.5634Z" stroke="url(#paint19_linear_2616_16502)" stroke-width="0.15"/>
</g>
<g filter="url(#filter4_i_2616_16502)">
<path d="M55.234 61.0043C53.1617 61.0043 51.2202 60.4962 49.596 59.6304C49.0359 59.3293 48.4385 59.9692 48.7932 60.515C50.156 62.6417 52.5457 64.0532 55.2527 64.0532C57.9597 64.0532 60.3306 62.6417 61.7121 60.515C62.0482 59.988 61.4695 59.3481 60.9094 59.6304C59.2478 60.4962 57.3063 61.0043 55.234 61.0043Z" fill="#89024E"/>
</g>
<path d="M64.0803 48.0613C67.099 48.0613 69.649 50.1425 70.3428 52.955C70.549 53.7613 69.9303 54.53 69.1053 54.53H58.7928C58.1365 54.53 57.6115 53.93 57.7428 53.2738C58.324 50.3113 60.9303 48.0613 64.0803 48.0613Z" fill="white"/>
<path d="M45.3303 48.0613C42.3116 48.0613 39.7616 50.1425 39.0678 52.955C38.8616 53.7613 39.4803 54.53 40.3053 54.53H50.6178C51.2741 54.53 51.7991 53.93 51.6678 53.2738C51.0866 50.3113 48.4616 48.0613 45.3303 48.0613Z" fill="white"/>
<path d="M63.124 49.3176C65.4115 49.3176 67.249 51.1739 67.249 53.4426C67.249 53.8176 67.1928 54.1926 67.099 54.5301H59.1303C59.0365 54.1739 58.9803 53.8176 58.9803 53.4426C58.9803 51.1739 60.8365 49.3176 63.124 49.3176Z" fill="url(#paint20_radial_2616_16502)"/>
<path d="M46.2865 49.3176C43.999 49.3176 42.1615 51.1739 42.1615 53.4426C42.1615 53.8176 42.2177 54.1926 42.3115 54.5301H50.2803C50.374 54.1739 50.4303 53.8176 50.4303 53.4426C50.4115 51.1739 48.574 49.3176 46.2865 49.3176Z" fill="url(#paint21_radial_2616_16502)"/>
<path d="M60.7615 53.4426C60.7615 52.1301 61.8115 51.0801 63.124 51.0801C64.4365 51.0801 65.4865 52.1301 65.4865 53.4426C65.4865 53.8363 65.3928 54.2113 65.224 54.5301H61.0428C60.8553 54.2113 60.7615 53.8363 60.7615 53.4426Z" fill="black"/>
<path d="M48.649 53.4426C48.649 52.1301 47.599 51.0801 46.2865 51.0801C44.974 51.0801 43.924 52.1301 43.924 53.4426C43.924 53.8363 44.0178 54.2113 44.1865 54.5301H48.3678C48.5365 54.2113 48.649 53.8363 48.649 53.4426Z" fill="black"/>
<g filter="url(#filter5_i_2616_16502)">
<path d="M43.024 44.3487C44.1303 43.955 45.6678 43.6737 47.6553 43.8612" stroke="#1F1917" stroke-miterlimit="10" stroke-linecap="round" stroke-linejoin="round"/>
</g>
<g filter="url(#filter6_f_2616_16502)">
<path d="M43.1266 44.173C44.2328 43.7792 45.7703 43.498 47.7578 43.6855" stroke="url(#paint22_linear_2616_16502)" stroke-width="0.3" stroke-miterlimit="10" stroke-linecap="round" stroke-linejoin="round"/>
</g>
<g filter="url(#filter7_f_2616_16502)">
<path d="M58.3468 33.8469L67.832 28.7881C73.0313 32.5381 73.2657 39.3154 73.0313 41.1514L60.7877 42.8171C59.2027 43.0328 57.7273 41.9669 57.4341 40.3944L56.8094 37.0438C56.5694 35.7569 57.1917 34.4629 58.3468 33.8469Z" fill="url(#paint23_linear_2616_16502)"/>
</g>
<g filter="url(#filter8_f_2616_16502)">
<path d="M55.473 21.6364C52.711 21.2192 50.3025 21.6312 48.7408 23.7188C52.4805 23.7188 57.5925 26.0131 56.8509 30.9229C56.6423 32.3039 56.4498 33.2103 55.473 34.055C55.2978 34.2026 55.183 34.4103 55.1526 34.6296C55.0661 35.2537 55.6103 35.7934 56.2288 35.6728C59.1962 35.104 61.1227 32.9764 61.5622 29.8049C62.1216 25.8935 59.3798 22.2294 55.473 21.6364Z" fill="url(#paint24_linear_2616_16502)"/>
</g>
<g filter="url(#filter9_i_2616_16502)">
<path d="M54.6833 19.8239C51.6083 19.7864 48.9458 21.4739 47.5583 23.9864C48.7208 23.7239 49.9021 23.5739 51.0833 23.5739H51.3646C54.7583 23.5739 57.6083 26.3489 57.5896 29.7426C57.5708 31.2801 57.0083 32.6676 56.0708 33.7364C55.9021 33.9239 55.8083 34.1676 55.8083 34.4114C55.8083 35.1051 56.4833 35.6114 57.1396 35.3864C60.2896 34.3176 62.5583 31.3364 62.5583 27.8114C62.5771 23.4614 59.0333 19.8801 54.6833 19.8239Z" fill="#222120"/>
<path d="M54.6833 19.8239C51.6083 19.7864 48.9458 21.4739 47.5583 23.9864C48.7208 23.7239 49.9021 23.5739 51.0833 23.5739H51.3646C54.7583 23.5739 57.6083 26.3489 57.5896 29.7426C57.5708 31.2801 57.0083 32.6676 56.0708 33.7364C55.9021 33.9239 55.8083 34.1676 55.8083 34.4114C55.8083 35.1051 56.4833 35.6114 57.1396 35.3864C60.2896 34.3176 62.5583 31.3364 62.5583 27.8114C62.5771 23.4614 59.0333 19.8801 54.6833 19.8239Z" fill="url(#paint25_radial_2616_16502)"/>
<path d="M54.6833 19.8239C51.6083 19.7864 48.9458 21.4739 47.5583 23.9864C48.7208 23.7239 49.9021 23.5739 51.0833 23.5739H51.3646C54.7583 23.5739 57.6083 26.3489 57.5896 29.7426C57.5708 31.2801 57.0083 32.6676 56.0708 33.7364C55.9021 33.9239 55.8083 34.1676 55.8083 34.4114C55.8083 35.1051 56.4833 35.6114 57.1396 35.3864C60.2896 34.3176 62.5583 31.3364 62.5583 27.8114C62.5771 23.4614 59.0333 19.8801 54.6833 19.8239Z" fill="url(#paint26_radial_2616_16502)"/>
<path d="M54.6833 19.8239C51.6083 19.7864 48.9458 21.4739 47.5583 23.9864C48.7208 23.7239 49.9021 23.5739 51.0833 23.5739H51.3646C54.7583 23.5739 57.6083 26.3489 57.5896 29.7426C57.5708 31.2801 57.0083 32.6676 56.0708 33.7364C55.9021 33.9239 55.8083 34.1676 55.8083 34.4114C55.8083 35.1051 56.4833 35.6114 57.1396 35.3864C60.2896 34.3176 62.5583 31.3364 62.5583 27.8114C62.5771 23.4614 59.0333 19.8801 54.6833 19.8239Z" fill="url(#paint27_radial_2616_16502)"/>
<path d="M54.6833 19.8239C51.6083 19.7864 48.9458 21.4739 47.5583 23.9864C48.7208 23.7239 49.9021 23.5739 51.0833 23.5739H51.3646C54.7583 23.5739 57.6083 26.3489 57.5896 29.7426C57.5708 31.2801 57.0083 32.6676 56.0708 33.7364C55.9021 33.9239 55.8083 34.1676 55.8083 34.4114C55.8083 35.1051 56.4833 35.6114 57.1396 35.3864C60.2896 34.3176 62.5583 31.3364 62.5583 27.8114C62.5771 23.4614 59.0333 19.8801 54.6833 19.8239Z" fill="url(#paint28_radial_2616_16502)"/>
</g>
<g filter="url(#filter10_f_2616_16502)">
<path d="M55.0044 59.1982C55.9593 59.1982 56.8126 58.6717 57.3002 57.8818C57.7471 57.1578 57.2799 56.1924 56.4672 56.1924H53.5416C52.7289 56.1924 52.2413 57.1797 52.7086 57.8818C53.1962 58.6936 54.0495 59.1982 55.0044 59.1982Z" fill="#DA9C94"/>
</g>
<g filter="url(#filter11_f_2616_16502)">
<path d="M55.2534 58.542C56.2083 58.542 57.0616 58.0154 57.5492 57.2256C57.9962 56.5015 57.5289 55.5361 56.7162 55.5361H53.7906C52.9779 55.5361 52.4903 56.5235 52.9576 57.2256C53.4452 58.0374 54.2985 58.542 55.2534 58.542Z" fill="url(#paint29_radial_2616_16502)"/>
<path d="M55.2534 58.542C56.2083 58.542 57.0616 58.0154 57.5492 57.2256C57.9962 56.5015 57.5289 55.5361 56.7162 55.5361H53.7906C52.9779 55.5361 52.4903 56.5235 52.9576 57.2256C53.4452 58.0374 54.2985 58.542 55.2534 58.542Z" fill="url(#paint30_radial_2616_16502)"/>
</g>
<g filter="url(#filter12_f_2616_16502)">
<path d="M62.8206 50.1895C63.1145 50.5825 62.5002 51.0617 61.8017 51.584C61.1033 52.1062 60.5851 52.4737 60.2912 52.0806C59.9973 51.6875 60.3253 50.9456 61.0238 50.4233C61.7222 49.9011 62.5267 49.7964 62.8206 50.1895Z" fill="#C7A7A3"/>
<path d="M62.8206 50.1895C63.1145 50.5825 62.5002 51.0617 61.8017 51.584C61.1033 52.1062 60.5851 52.4737 60.2912 52.0806C59.9973 51.6875 60.3253 50.9456 61.0238 50.4233C61.7222 49.9011 62.5267 49.7964 62.8206 50.1895Z" fill="url(#paint31_radial_2616_16502)"/>
</g>
<g filter="url(#filter13_f_2616_16502)">
<path d="M66.7982 52.8994C66.6459 51.833 66.0219 51.0293 65.7289 50.7607L64.5277 52.0791L65.0697 53.1338L66.7982 52.8994Z" fill="url(#paint32_linear_2616_16502)"/>
</g>
<g filter="url(#filter14_f_2616_16502)">
<path d="M50.0551 52.958C50.0551 51.625 48.9711 50.7363 48.6781 50.4678L47.3451 51.7568L48.1654 53.4268L50.0551 52.958Z" fill="url(#paint33_linear_2616_16502)"/>
</g>
<g filter="url(#filter15_f_2616_16502)">
<ellipse cx="45.042" cy="51.08" rx="1.80078" ry="0.911362" transform="rotate(-27.914 45.042 51.08)" fill="#C7A7A3" fill-opacity="0.9"/>
<ellipse cx="45.042" cy="51.08" rx="1.80078" ry="0.911362" transform="rotate(-27.914 45.042 51.08)" fill="url(#paint34_radial_2616_16502)"/>
</g>
<g filter="url(#filter16_i_2616_16502)">
<path d="M66.5928 44.3487C65.4865 43.955 63.949 43.6737 61.9615 43.8612" stroke="#1F1917" stroke-miterlimit="10" stroke-linecap="round" stroke-linejoin="round"/>
</g>
<g filter="url(#filter17_f_2616_16502)">
<path d="M66.5928 44.0753C65.4865 43.6816 63.949 43.4003 61.9615 43.5878" stroke="url(#paint35_linear_2616_16502)" stroke-width="0.3" stroke-miterlimit="10" stroke-linecap="round" stroke-linejoin="round"/>
</g>
<path d="M108.211 31.3398C109.746 31.3457 110.836 32.7578 110.848 34.9727C110.836 37.1934 109.746 38.5996 108.211 38.5938C106.664 38.5996 105.58 37.1934 105.586 34.9727C105.58 32.7578 106.664 31.3457 108.211 31.3398ZM106.453 34.9727C106.459 36.666 107.18 37.7793 108.211 37.7734C109.254 37.7793 109.957 36.666 109.957 34.9727C109.957 33.2793 109.254 32.166 108.211 32.1602C107.18 32.166 106.459 33.2793 106.453 34.9727ZM112.57 40.9492V30.5312H113.484V34.6914H115.23V35.4883H113.484V40.9492H112.57ZM124.783 30.5312V40.9727H123.857V30.5312H124.783ZM116.58 34.9727C116.586 32.7578 117.687 31.3457 119.24 31.3398C120.787 31.3457 121.906 32.7578 121.9 34.9727C121.906 37.1934 120.787 38.5996 119.24 38.5938C117.687 38.5996 116.586 37.1934 116.58 34.9727ZM117.47 34.9727C117.47 36.666 118.197 37.7793 119.24 37.7734C120.289 37.7793 121.009 36.666 121.009 34.9727C121.009 33.2793 120.289 32.166 119.24 32.1602C118.197 32.166 117.47 33.2793 117.47 34.9727ZM136.491 35.3711V36.0977H126.952V35.3711H136.491ZM128.101 37.6211V36.9297H135.296V39.1445H129.038V40.1406H135.636V40.8086H128.112V38.5117H134.382V37.6211H128.101ZM128.159 31.5156V30.8477H135.261V33.0039H129.109V33.918H135.448V34.5859H128.195V32.3711H134.335V31.5156H128.159ZM144.58 31.0469C146.139 31.0352 147.258 31.8965 147.252 33.168C147.258 34.4395 146.139 35.3066 144.58 35.3008C143.022 35.3066 141.909 34.4395 141.909 33.168C141.909 31.8965 143.022 31.0352 144.58 31.0469ZM141.123 36.1914C143.08 36.1973 145.758 36.1562 148.073 35.8164L148.131 36.5078C147.135 36.6895 146.104 36.8008 145.096 36.8652V40.6328H144.182V36.918C143.121 36.9648 142.12 36.9707 141.252 36.9766L141.123 36.1914ZM142.811 33.168C142.799 33.9824 143.543 34.5449 144.58 34.5391C145.629 34.5449 146.379 33.9824 146.373 33.168C146.379 32.3594 145.629 31.7852 144.58 31.7969C143.543 31.7852 142.799 32.3594 142.811 33.168ZM148.834 40.9609V30.543H149.737V40.9609H148.834ZM160.062 30.543V33.9766H161.633V34.75H160.062V38.3477H159.148V30.543H160.062ZM151.941 32.5703V31.8203H154.59V30.543H155.504V31.8203H158.152V32.5703H151.941ZM152.539 35.0898C152.533 33.9062 153.541 33.1445 155.047 33.1445C156.535 33.1445 157.543 33.9062 157.555 35.0898C157.543 36.2617 156.535 37.0176 155.047 37.0117C153.541 37.0176 152.533 36.2617 152.539 35.0898ZM153.418 35.0898C153.412 35.8223 154.062 36.2969 155.047 36.2852C156.02 36.2969 156.676 35.8223 156.688 35.0898C156.676 34.3457 156.02 33.8652 155.047 33.8711C154.062 33.8652 153.412 34.3457 153.418 35.0898ZM153.547 40.7266V37.7266H154.449V39.9531H160.543V40.7266H153.547ZM174.163 30.5312V34.832H175.909V35.5938H174.163V40.9492H173.249V30.5312H174.163ZM166.042 32.9688V32.207H168.726V30.6602H169.64V32.207H172.241V32.9688H166.042ZM166.64 36.2266C166.634 34.8203 167.712 33.8359 169.195 33.8359C170.665 33.8359 171.737 34.8203 171.749 36.2266C171.737 37.6387 170.665 38.6172 169.195 38.6172C167.712 38.6172 166.634 37.6387 166.64 36.2266ZM167.519 36.2266C167.513 37.1758 168.222 37.8438 169.195 37.832C170.155 37.8438 170.859 37.1758 170.87 36.2266C170.859 35.2832 170.155 34.6035 169.195 34.6094C168.222 34.6035 167.513 35.2832 167.519 36.2266ZM186.622 34.6914V35.4648H184.934V40.9492H184.02V30.5312H184.934V34.6914H186.622ZM177.305 38.3008V31.5625H178.22V37.5273C179.743 37.5273 181.296 37.4102 183.012 37.0469L183.13 37.832C181.331 38.1953 179.714 38.3008 178.137 38.3008H177.305ZM189.33 31.5156L189.248 37.6094H188.264L188.182 31.5156H189.33ZM188.006 39.3086C187.995 38.8984 188.346 38.5586 188.756 38.5586C189.172 38.5586 189.512 38.8984 189.506 39.3086C189.512 39.7246 189.172 40.0645 188.756 40.0703C188.346 40.0645 187.995 39.7246 188.006 39.3086Z" fill="white"/>
<path d="M116.648 54.8711V55.9512H111.645V60.1621H110.373V55.9512H105.438V54.8711H116.648ZM106.654 51.0977C106.661 49.4297 108.425 48.377 111.016 48.377C113.606 48.377 115.384 49.4297 115.377 51.0977C115.384 52.7451 113.606 53.791 111.016 53.791C108.425 53.791 106.661 52.7451 106.654 51.0977ZM107.994 51.0977C107.987 52.1162 109.197 52.752 111.016 52.752C112.841 52.752 114.044 52.1162 114.051 51.0977C114.044 50.0654 112.841 49.4229 111.016 49.416C109.197 49.4229 107.987 50.0654 107.994 51.0977ZM127.823 47.9121V60.1895H126.524V47.9121H127.823ZM118.334 50.0723V49.0195H124.077V53.4902H119.674V56.1699C121.663 56.1631 123.393 56.0674 125.444 55.7324L125.567 56.7988C123.4 57.1611 121.554 57.2432 119.387 57.25H118.348V52.4512H122.75V50.0723H118.334ZM133.132 48.8281C134.964 48.835 136.269 50.5029 136.276 53.1211C136.269 55.7666 134.964 57.4346 133.132 57.4277C131.3 57.4346 129.994 55.7666 130.001 53.1211C129.994 50.5029 131.3 48.835 133.132 48.8281ZM131.245 53.1211C131.238 55.0693 132.017 56.2656 133.132 56.2656C134.266 56.2656 135.032 55.0693 135.032 53.1211C135.032 51.2002 134.266 49.9971 133.132 49.9902C132.017 49.9971 131.238 51.2002 131.245 53.1211ZM138.095 60.1621V47.9121H139.393V52.7109H141.362V53.8047H139.393V60.1621H138.095ZM152.195 47.9121V60.1895H150.896V47.9121H152.195ZM142.474 53.1211C142.474 50.5029 143.793 48.835 145.646 48.8281C147.464 48.835 148.804 50.5029 148.804 53.1211C148.804 55.7666 147.464 57.4346 145.646 57.4277C143.793 57.4346 142.474 55.7666 142.474 53.1211ZM143.732 53.1211C143.725 55.0693 144.504 56.2656 145.646 56.2656C146.767 56.2656 147.546 55.0693 147.546 53.1211C147.546 51.2002 146.767 49.9971 145.646 49.9902C144.504 49.9971 143.725 51.2002 143.732 53.1211ZM162.279 51.5215C162.272 53.5723 163.619 55.6914 165.506 56.498L164.795 57.5098C163.353 56.874 162.204 55.5205 161.637 53.8867C161.069 55.6367 159.921 57.127 158.492 57.8242L157.74 56.7988C159.586 55.9307 160.953 53.6338 160.967 51.5215V50.2227H158.164V49.1426H165.068V50.2227H162.279V51.5215ZM166.613 60.1621V47.9121H167.912V60.1621H166.613ZM181.164 54.1055V55.1582H176.297V57.5371H175.012V55.1582H169.954V54.1055H181.164ZM171.348 59.9023V56.375H172.647V58.8496H179.92V59.9023H171.348ZM171.389 52.834V48.4863H179.715V52.834H171.389ZM172.661 51.8086H178.43V49.5117H172.661V51.8086ZM193.35 53.668V54.7344H182.167V53.668H193.35ZM183.493 57.9199C183.493 56.498 185.086 55.6914 187.745 55.6914C190.384 55.6914 191.963 56.498 191.97 57.9199C191.963 59.3418 190.384 60.1416 187.745 60.1348C185.086 60.1416 183.493 59.3418 183.493 57.9199ZM183.561 52.6016V48.3496H191.97V49.416H184.846V51.5488H192.052V52.6016H183.561ZM184.805 57.9199C184.799 58.7061 185.872 59.1299 187.745 59.1367C189.591 59.1299 190.671 58.7061 190.671 57.9199C190.671 57.1406 189.591 56.7031 187.745 56.6895C185.872 56.7031 184.799 57.1406 184.805 57.9199ZM205.564 54.5977V55.6504H194.353V54.5977H199.316V53.4355H195.788V50.3184H202.857V49.2246H195.761V48.1992H204.155V51.2754H197.073V52.4238H204.402V53.4355H200.601V54.5977H205.564ZM195.611 57.5508V56.5117H204.224V60.0664H202.911V57.5508H195.611ZM216.109 47.9121V52.875H218.078V53.9551H216.109V60.1621H214.824V47.9121H216.109ZM206.498 50.8926V49.8262H209.519V48.0762H210.818V49.8262H213.757V50.8926H206.498ZM207.127 54.6387C207.127 52.9707 208.412 51.7949 210.175 51.7949C211.932 51.7949 213.217 52.9707 213.224 54.6387C213.217 56.3203 211.932 57.4893 210.175 57.4961C208.412 57.4893 207.127 56.3203 207.127 54.6387ZM208.371 54.6387C208.364 55.7051 209.129 56.416 210.175 56.4023C211.214 56.416 211.973 55.7051 211.98 54.6387C211.973 53.5928 211.214 52.8682 210.175 52.8613C209.129 52.8682 208.364 53.5928 208.371 54.6387ZM228.678 49.0879V50.291C228.671 51.8018 228.671 53.4971 228.213 56.0059L226.9 55.8691C227.372 53.4971 227.372 51.7607 227.379 50.291V50.1406H219.941V49.0879H228.678ZM218.766 58.5078V57.4277H223.018V53.1074H224.303V57.4277H229.936V58.5078H218.766ZM244.641 47.9258V56.8262H243.343V47.9258H244.641ZM234.729 51.7812C234.736 50.0107 236.144 48.7529 237.997 48.7461C239.843 48.7529 241.251 50.0107 241.251 51.7812C241.251 53.5791 239.843 54.8301 237.997 54.8301C236.144 54.8301 234.736 53.5791 234.729 51.7812ZM236.001 51.7812C235.994 52.9365 236.855 53.6953 237.997 53.6953C239.118 53.6953 239.979 52.9365 239.979 51.7812C239.979 50.6533 239.118 49.8809 237.997 49.8809C236.855 49.8809 235.994 50.6533 236.001 51.7812ZM236.63 59.9023V55.9238H237.942V58.8496H245.011V59.9023H236.63ZM257.853 53.6816V54.7344H246.683V53.6816H257.853ZM247.271 52.0137C249.492 51.7744 251.249 50.7764 251.393 49.5801H247.708V48.5137H256.855V49.5801H253.129C253.279 50.7695 255.009 51.7744 257.279 52.0137L256.814 53.0391C254.688 52.793 252.931 51.8975 252.268 50.6055C251.591 51.8975 249.848 52.793 247.722 53.0391L247.271 52.0137ZM248.009 57.9199C248.009 56.498 249.602 55.6777 252.261 55.6777C254.9 55.6777 256.479 56.498 256.486 57.9199C256.479 59.3418 254.9 60.1416 252.261 60.1348C249.602 60.1416 248.009 59.3418 248.009 57.9199ZM249.321 57.9199C249.315 58.6924 250.388 59.1162 252.261 59.1094C254.107 59.1162 255.187 58.6924 255.187 57.9199C255.187 57.127 254.107 56.7031 252.261 56.6895C250.388 56.7031 249.315 57.127 249.321 57.9199ZM264.939 49.9355V50.9883H258.855V49.9355H261.261V48.2676H262.546V49.9355H264.939ZM259.252 54.543C259.245 52.8955 260.366 51.7266 261.904 51.7266C263.456 51.7266 264.563 52.8955 264.57 54.543C264.563 56.2178 263.456 57.3936 261.904 57.3867C260.366 57.3936 259.245 56.2178 259.252 54.543ZM260.4 54.543C260.393 55.582 261.022 56.2793 261.904 56.2793C262.786 56.2793 263.421 55.582 263.421 54.543C263.421 53.5244 262.786 52.8135 261.904 52.8066C261.022 52.8135 260.393 53.5244 260.4 54.543ZM265.5 59.5879V48.1855H266.73V53.0117H268.138V47.9121H269.369V60.1621H268.138V54.0781H266.73V59.5879H265.5ZM282.293 57.5645V58.6445H271.082V57.5645H276.018V55.0488H272.367V48.7461H273.666V50.8516H279.682V48.7461H280.967V55.0488H277.303V57.5645H282.293ZM273.666 53.9961H279.682V51.9043H273.666V53.9961ZM287.014 51.2617C287.014 53.2168 287.834 55.3018 289.475 56.3066L288.75 57.3047C287.602 56.6143 286.829 55.3906 286.406 53.9756C285.961 55.5273 285.114 56.8535 283.924 57.5781L283.118 56.6074C284.847 55.5684 285.763 53.4014 285.756 51.3164V49.0332H287.014V51.2617ZM288.149 53.2988V52.2188H290.049V48.1445H291.28V59.5605H290.049V53.2988H288.149ZM292.579 60.1621V47.9121H293.823V60.1621H292.579ZM306.692 57.5508V58.6309H295.481V57.5508H298.161V54.3516C297.156 53.7979 296.541 52.9229 296.548 51.8223C296.541 49.8945 298.434 48.6299 301.059 48.623C303.691 48.6299 305.585 49.8945 305.585 51.8223C305.585 52.9023 304.997 53.7705 304.012 54.3242V57.5508H306.692ZM297.805 51.8223C297.805 53.1348 299.138 53.9893 301.059 53.9961C302.967 53.9893 304.32 53.1348 304.327 51.8223C304.32 50.5029 302.967 49.6621 301.059 49.6621C299.138 49.6621 297.805 50.5029 297.805 51.8223ZM299.446 57.5508H302.7V54.8301C302.201 54.9463 301.647 55.0078 301.059 55.0078C300.485 55.0078 299.938 54.9463 299.446 54.8301V57.5508ZM309.937 49.1016L309.814 56.1426H308.46L308.337 49.1016H309.937ZM308.173 58.125C308.166 57.5918 308.611 57.1543 309.144 57.1543C309.67 57.1543 310.108 57.5918 310.114 58.125C310.108 58.6582 309.67 59.0889 309.144 59.0957C308.611 59.0889 308.166 58.6582 308.173 58.125Z" fill="white"/>
</g>
<defs>
<filter id="filter0_f_2616_16502" x="33.3997" y="49.0676" width="8.07367" height="8.07373" filterUnits="userSpaceOnUse" color-interpolation-filters="sRGB">
<feFlood flood-opacity="0" result="BackgroundImageFix"/>
<feBlend mode="normal" in="SourceGraphic" in2="BackgroundImageFix" result="shape"/>
<feGaussianBlur stdDeviation="0.125" result="effect1_foregroundBlur_2616_16502"/>
</filter>
<filter id="filter1_f_2616_16502" x="68.9088" y="48.9517" width="8.30548" height="8.30542" filterUnits="userSpaceOnUse" color-interpolation-filters="sRGB">
<feFlood flood-opacity="0" result="BackgroundImageFix"/>
<feBlend mode="normal" in="SourceGraphic" in2="BackgroundImageFix" result="shape"/>
<feGaussianBlur stdDeviation="0.125" result="effect1_foregroundBlur_2616_16502"/>
</filter>
<filter id="filter2_ii_2616_16502" x="34.2616" y="23.4268" width="42.9" height="48.75" filterUnits="userSpaceOnUse" color-interpolation-filters="sRGB">
<feFlood flood-opacity="0" result="BackgroundImageFix"/>
<feBlend mode="normal" in="SourceGraphic" in2="BackgroundImageFix" result="shape"/>
<feColorMatrix in="SourceAlpha" type="matrix" values="0 0 0 0 0 0 0 0 0 0 0 0 0 0 0 0 0 0 127 0" result="hardAlpha"/>
<feOffset dx="1.25"/>
<feGaussianBlur stdDeviation="1"/>
<feComposite in2="hardAlpha" operator="arithmetic" k2="-1" k3="1"/>
<feColorMatrix type="matrix" values="0 0 0 0 0.905882 0 0 0 0 0.682353 0 0 0 0 0.592157 0 0 0 1 0"/>
<feBlend mode="normal" in2="shape" result="effect1_innerShadow_2616_16502"/>
<feColorMatrix in="SourceAlpha" type="matrix" values="0 0 0 0 0 0 0 0 0 0 0 0 0 0 0 0 0 0 127 0" result="hardAlpha"/>
<feOffset dx="-0.4"/>
<feGaussianBlur stdDeviation="0.6"/>
<feComposite in2="hardAlpha" operator="arithmetic" k2="-1" k3="1"/>
<feColorMatrix type="matrix" values="0 0 0 0 1 0 0 0 0 0.85098 0 0 0 0 0.737255 0 0 0 1 0"/>
<feBlend mode="normal" in2="effect1_innerShadow_2616_16502" result="effect2_innerShadow_2616_16502"/>
</filter>
<filter id="filter3_f_2616_16502" x="48.4357" y="59.3023" width="13.6268" height="5.00078" filterUnits="userSpaceOnUse" color-interpolation-filters="sRGB">
<feFlood flood-opacity="0" result="BackgroundImageFix"/>
<feBlend mode="normal" in="SourceGraphic" in2="BackgroundImageFix" result="shape"/>
<feGaussianBlur stdDeviation="0.05" result="effect1_foregroundBlur_2616_16502"/>
</filter>
<filter id="filter4_i_2616_16502" x="48.6865" y="59.5532" width="13.125" height="4.5" filterUnits="userSpaceOnUse" color-interpolation-filters="sRGB">
<feFlood flood-opacity="0" result="BackgroundImageFix"/>
<feBlend mode="normal" in="SourceGraphic" in2="BackgroundImageFix" result="shape"/>
<feColorMatrix in="SourceAlpha" type="matrix" values="0 0 0 0 0 0 0 0 0 0 0 0 0 0 0 0 0 0 127 0" result="hardAlpha"/>
<feOffset/>
<feGaussianBlur stdDeviation="0.5"/>
<feComposite in2="hardAlpha" operator="arithmetic" k2="-1" k3="1"/>
<feColorMatrix type="matrix" values="0 0 0 0 0.529412 0 0 0 0 0 0 0 0 0 0.301961 0 0 0 1 0"/>
<feBlend mode="normal" in2="shape" result="effect1_innerShadow_2616_16502"/>
</filter>
<filter id="filter5_i_2616_16502" x="42.5239" y="43.0018" width="5.88141" height="1.84712" filterUnits="userSpaceOnUse" color-interpolation-filters="sRGB">
<feFlood flood-opacity="0" result="BackgroundImageFix"/>
<feBlend mode="normal" in="SourceGraphic" in2="BackgroundImageFix" result="shape"/>
<feColorMatrix in="SourceAlpha" type="matrix" values="0 0 0 0 0 0 0 0 0 0 0 0 0 0 0 0 0 0 127 0" result="hardAlpha"/>
<feOffset dx="0.25" dy="-0.3"/>
<feGaussianBlur stdDeviation="0.25"/>
<feComposite in2="hardAlpha" operator="arithmetic" k2="-1" k3="1"/>
<feColorMatrix type="matrix" values="0 0 0 0 0.105882 0 0 0 0 0.0666667 0 0 0 0 0.0980392 0 0 0 1 0"/>
<feBlend mode="normal" in2="shape" result="effect1_innerShadow_2616_16502"/>
</filter>
<filter id="filter6_f_2616_16502" x="42.7765" y="43.2761" width="5.3313" height="1.24692" filterUnits="userSpaceOnUse" color-interpolation-filters="sRGB">
<feFlood flood-opacity="0" result="BackgroundImageFix"/>
<feBlend mode="normal" in="SourceGraphic" in2="BackgroundImageFix" result="shape"/>
<feGaussianBlur stdDeviation="0.1" result="effect1_foregroundBlur_2616_16502"/>
</filter>
<filter id="filter7_f_2616_16502" x="54.2584" y="26.2881" width="21.3317" height="19.0566" filterUnits="userSpaceOnUse" color-interpolation-filters="sRGB">
<feFlood flood-opacity="0" result="BackgroundImageFix"/>
<feBlend mode="normal" in="SourceGraphic" in2="BackgroundImageFix" result="shape"/>
<feGaussianBlur stdDeviation="1.25" result="effect1_foregroundBlur_2616_16502"/>
</filter>
<filter id="filter8_f_2616_16502" x="48.2408" y="20.9902" width="13.8939" height="15.1995" filterUnits="userSpaceOnUse" color-interpolation-filters="sRGB">
<feFlood flood-opacity="0" result="BackgroundImageFix"/>
<feBlend mode="normal" in="SourceGraphic" in2="BackgroundImageFix" result="shape"/>
<feGaussianBlur stdDeviation="0.25" result="effect1_foregroundBlur_2616_16502"/>
</filter>
<filter id="filter9_i_2616_16502" x="47.4583" y="19.6232" width="15.1001" height="15.8172" filterUnits="userSpaceOnUse" color-interpolation-filters="sRGB">
<feFlood flood-opacity="0" result="BackgroundImageFix"/>
<feBlend mode="normal" in="SourceGraphic" in2="BackgroundImageFix" result="shape"/>
<feColorMatrix in="SourceAlpha" type="matrix" values="0 0 0 0 0 0 0 0 0 0 0 0 0 0 0 0 0 0 127 0" result="hardAlpha"/>
<feOffset dx="-0.1" dy="-0.2"/>
<feGaussianBlur stdDeviation="0.25"/>
<feComposite in2="hardAlpha" operator="arithmetic" k2="-1" k3="1"/>
<feColorMatrix type="matrix" values="0 0 0 0 0.176471 0 0 0 0 0.129412 0 0 0 0 0.121569 0 0 0 1 0"/>
<feBlend mode="normal" in2="shape" result="effect1_innerShadow_2616_16502"/>
</filter>
<filter id="filter10_f_2616_16502" x="52.0265" y="55.6924" width="5.94702" height="4.00586" filterUnits="userSpaceOnUse" color-interpolation-filters="sRGB">
<feFlood flood-opacity="0" result="BackgroundImageFix"/>
<feBlend mode="normal" in="SourceGraphic" in2="BackgroundImageFix" result="shape"/>
<feGaussianBlur stdDeviation="0.25" result="effect1_foregroundBlur_2616_16502"/>
</filter>
<filter id="filter11_f_2616_16502" x="52.5255" y="55.2861" width="5.44702" height="3.50586" filterUnits="userSpaceOnUse" color-interpolation-filters="sRGB">
<feFlood flood-opacity="0" result="BackgroundImageFix"/>
<feBlend mode="normal" in="SourceGraphic" in2="BackgroundImageFix" result="shape"/>
<feGaussianBlur stdDeviation="0.125" result="effect1_foregroundBlur_2616_16502"/>
</filter>
<filter id="filter12_f_2616_16502" x="60.0835" y="49.8514" width="2.9124" height="2.49395" filterUnits="userSpaceOnUse" color-interpolation-filters="sRGB">
<feFlood flood-opacity="0" result="BackgroundImageFix"/>
<feBlend mode="normal" in="SourceGraphic" in2="BackgroundImageFix" result="shape"/>
<feGaussianBlur stdDeviation="0.05" result="effect1_foregroundBlur_2616_16502"/>
</filter>
<filter id="filter13_f_2616_16502" x="64.3277" y="50.5607" width="2.67051" height="2.77305" filterUnits="userSpaceOnUse" color-interpolation-filters="sRGB">
<feFlood flood-opacity="0" result="BackgroundImageFix"/>
<feBlend mode="normal" in="SourceGraphic" in2="BackgroundImageFix" result="shape"/>
<feGaussianBlur stdDeviation="0.1" result="effect1_foregroundBlur_2616_16502"/>
</filter>
<filter id="filter14_f_2616_16502" x="47.1451" y="50.2678" width="3.10996" height="3.35898" filterUnits="userSpaceOnUse" color-interpolation-filters="sRGB">
<feFlood flood-opacity="0" result="BackgroundImageFix"/>
<feBlend mode="normal" in="SourceGraphic" in2="BackgroundImageFix" result="shape"/>
<feGaussianBlur stdDeviation="0.1" result="effect1_foregroundBlur_2616_16502"/>
</filter>
<filter id="filter15_f_2616_16502" x="43.2941" y="49.8141" width="3.49578" height="2.53179" filterUnits="userSpaceOnUse" color-interpolation-filters="sRGB">
<feFlood flood-opacity="0" result="BackgroundImageFix"/>
<feBlend mode="normal" in="SourceGraphic" in2="BackgroundImageFix" result="shape"/>
<feGaussianBlur stdDeviation="0.05" result="effect1_foregroundBlur_2616_16502"/>
</filter>
<filter id="filter16_i_2616_16502" x="61.2115" y="43.0018" width="5.88141" height="1.84712" filterUnits="userSpaceOnUse" color-interpolation-filters="sRGB">
<feFlood flood-opacity="0" result="BackgroundImageFix"/>
<feBlend mode="normal" in="SourceGraphic" in2="BackgroundImageFix" result="shape"/>
<feColorMatrix in="SourceAlpha" type="matrix" values="0 0 0 0 0 0 0 0 0 0 0 0 0 0 0 0 0 0 127 0" result="hardAlpha"/>
<feOffset dx="-0.25" dy="-0.3"/>
<feGaussianBlur stdDeviation="0.25"/>
<feComposite in2="hardAlpha" operator="arithmetic" k2="-1" k3="1"/>
<feColorMatrix type="matrix" values="0 0 0 0 0.105882 0 0 0 0 0.0666667 0 0 0 0 0.0980392 0 0 0 1 0"/>
<feBlend mode="normal" in2="shape" result="effect1_innerShadow_2616_16502"/>
</filter>
<filter id="filter17_f_2616_16502" x="61.6115" y="43.1784" width="5.3313" height="1.24692" filterUnits="userSpaceOnUse" color-interpolation-filters="sRGB">
<feFlood flood-opacity="0" result="BackgroundImageFix"/>
<feBlend mode="normal" in="SourceGraphic" in2="BackgroundImageFix" result="shape"/>
<feGaussianBlur stdDeviation="0.1" result="effect1_foregroundBlur_2616_16502"/>
</filter>
<linearGradient id="paint0_linear_2616_16502" x1="32.3242" y1="47.9482" x2="36.7188" y2="59.1982" gradientUnits="userSpaceOnUse">
<stop stop-color="#D5967D"/>
<stop offset="1" stop-color="#CA8581"/>
</linearGradient>
<radialGradient id="paint1_radial_2616_16502" cx="0" cy="0" r="1" gradientUnits="userSpaceOnUse" gradientTransform="translate(37.4365 53.4561) rotate(176.967) scale(6.64505 6.90996)">
<stop offset="0.794737" stop-color="#ECB099" stop-opacity="0"/>
<stop offset="1" stop-color="#DDA388"/>
<stop offset="1" stop-color="#ECB099"/>
</radialGradient>
<radialGradient id="paint2_radial_2616_16502" cx="0" cy="0" r="1" gradientUnits="userSpaceOnUse" gradientTransform="translate(37.4365 53.1045) rotate(90) scale(3.78684)">
<stop stop-color="#CC8A77"/>
<stop offset="1" stop-color="#CF8B77"/>
</radialGradient>
<linearGradient id="paint3_linear_2616_16502" x1="78.4668" y1="49.9405" x2="73.6244" y2="57.792" gradientUnits="userSpaceOnUse">
<stop stop-color="#FFDBC1"/>
<stop offset="1" stop-color="#EBB2A3"/>
</linearGradient>
<radialGradient id="paint4_radial_2616_16502" cx="0" cy="0" r="1" gradientUnits="userSpaceOnUse" gradientTransform="translate(73.7123 50.878) rotate(90.9485) scale(8.84887 8.48027)">
<stop offset="0.765592" stop-color="#C88E90" stop-opacity="0"/>
<stop offset="1" stop-color="#C88E90"/>
</radialGradient>
<radialGradient id="paint5_radial_2616_16502" cx="0" cy="0" r="1" gradientUnits="userSpaceOnUse" gradientTransform="translate(73.7123 52.3428) rotate(-48.351) scale(5.21457 5.1457)">
<stop offset="0.586383" stop-color="#F7B899"/>
<stop offset="0.883309" stop-color="#F7B899" stop-opacity="0"/>
</radialGradient>
<radialGradient id="paint6_radial_2616_16502" cx="0" cy="0" r="1" gradientUnits="userSpaceOnUse" gradientTransform="translate(74.0723 54.7745) rotate(-77.9694) scale(7.30897 5.73961)">
<stop offset="0.879486" stop-color="#F5C9AE" stop-opacity="0"/>
<stop offset="1" stop-color="#F5C9AE"/>
</radialGradient>
<radialGradient id="paint7_radial_2616_16502" cx="0" cy="0" r="1" gradientUnits="userSpaceOnUse" gradientTransform="translate(74.336 53.3974) rotate(8.97263) scale(2.81768 4.1656)">
<stop offset="0.54973" stop-color="#F7BCA4"/>
<stop offset="1" stop-color="#F6B799"/>
</radialGradient>
<linearGradient id="paint8_linear_2616_16502" x1="42.8125" y1="47.8018" x2="64.1406" y2="47.8018" gradientUnits="userSpaceOnUse">
<stop stop-color="#F7C2AD"/>
<stop offset="1" stop-color="#FFD0BA"/>
</linearGradient>
<linearGradient id="paint9_linear_2616_16502" x1="55.2866" y1="73.2607" x2="55.2866" y2="63.6513" gradientUnits="userSpaceOnUse">
<stop offset="0.195126" stop-color="#BC7F90"/>
<stop offset="1" stop-color="#BC7F90" stop-opacity="0"/>
</linearGradient>
<linearGradient id="paint10_linear_2616_16502" x1="38.0078" y1="49.8232" x2="59.1016" y2="55.2138" gradientUnits="userSpaceOnUse">
<stop stop-color="#D6A091"/>
<stop offset="1" stop-color="#D6A091" stop-opacity="0"/>
</linearGradient>
<radialGradient id="paint11_radial_2616_16502" cx="0" cy="0" r="1" gradientUnits="userSpaceOnUse" gradientTransform="translate(35.3125 52.7529) rotate(82.1709) scale(18.9264 5.77071)">
<stop stop-color="#EAB09A"/>
<stop offset="1" stop-color="#EAB09A" stop-opacity="0"/>
</radialGradient>
<radialGradient id="paint12_radial_2616_16502" cx="0" cy="0" r="1" gradientUnits="userSpaceOnUse" gradientTransform="translate(45.2734 72.1768) rotate(-95.4923) scale(24.4874 38.4241)">
<stop offset="0.108925" stop-color="#C48A90"/>
<stop offset="1" stop-color="#C48A90" stop-opacity="0"/>
</radialGradient>
<radialGradient id="paint13_radial_2616_16502" cx="0" cy="0" r="1" gradientUnits="userSpaceOnUse" gradientTransform="translate(45.7422 50.4677) rotate(-61.8214) scale(5.58365 7.44487)">
<stop offset="0.189297" stop-color="#CE9390"/>
<stop offset="1" stop-color="#CE9390" stop-opacity="0"/>
</radialGradient>
<radialGradient id="paint14_radial_2616_16502" cx="0" cy="0" r="1" gradientUnits="userSpaceOnUse" gradientTransform="translate(65.0781 50.9365) rotate(-79.5793) scale(5.18315 6.06875)">
<stop offset="0.235016" stop-color="#F3B6A7"/>
<stop offset="1" stop-color="#F5B8A9" stop-opacity="0"/>
</radialGradient>
<radialGradient id="paint15_radial_2616_16502" cx="0" cy="0" r="1" gradientUnits="userSpaceOnUse" gradientTransform="translate(72.1094 52.2841) rotate(108.435) scale(10.7468 17.5099)">
<stop stop-color="#FFDDC0"/>
<stop offset="1" stop-color="#FFDDC0" stop-opacity="0"/>
</radialGradient>
<radialGradient id="paint16_radial_2616_16502" cx="0" cy="0" r="1" gradientUnits="userSpaceOnUse" gradientTransform="translate(35.4297 32.5966) rotate(32.9574) scale(12.7093 23.9545)">
<stop stop-color="#E5B095"/>
<stop offset="1" stop-color="#E5B095" stop-opacity="0"/>
</radialGradient>
<linearGradient id="paint17_linear_2616_16502" x1="55.2866" y1="73.2607" x2="55.2866" y2="66.6982" gradientUnits="userSpaceOnUse">
<stop offset="0.195126" stop-color="#B47999"/>
<stop offset="1" stop-color="#B47999" stop-opacity="0"/>
</linearGradient>
<radialGradient id="paint18_radial_2616_16502" cx="0" cy="0" r="1" gradientUnits="userSpaceOnUse" gradientTransform="translate(57.6953 57.7919) rotate(-106.498) scale(35.0769 50.6805)">
<stop offset="0.824901" stop-color="#D3B19D" stop-opacity="0"/>
<stop offset="1" stop-color="#D3B19D"/>
</radialGradient>
<linearGradient id="paint19_linear_2616_16502" x1="50.8691" y1="62.9189" x2="51.8066" y2="61.2197" gradientUnits="userSpaceOnUse">
<stop stop-color="#DEABA7"/>
<stop offset="1" stop-color="#DEABA7" stop-opacity="0"/>
</linearGradient>
<radialGradient id="paint20_radial_2616_16502" cx="0" cy="0" r="1" gradientUnits="userSpaceOnUse" gradientTransform="translate(63.1146 51.5225) rotate(90) scale(3.75 5.96479)">
<stop offset="0.80198" stop-color="#865B4F"/>
<stop offset="1" stop-color="#694B43"/>
<stop offset="1" stop-color="#704D49"/>
</radialGradient>
<radialGradient id="paint21_radial_2616_16502" cx="0" cy="0" r="1" gradientUnits="userSpaceOnUse" gradientTransform="translate(46.2959 51.5225) rotate(90) scale(3.75 5.9648)">
<stop offset="0.80198" stop-color="#865B4F"/>
<stop offset="1" stop-color="#694B43"/>
<stop offset="1" stop-color="#704D49"/>
</radialGradient>
<linearGradient id="paint22_linear_2616_16502" x1="43.1266" y1="44.784" x2="48.3203" y2="43.8026" gradientUnits="userSpaceOnUse">
<stop stop-color="#343434"/>
<stop offset="1" stop-color="#343434" stop-opacity="0"/>
</linearGradient>
<linearGradient id="paint23_linear_2616_16502" x1="59.6875" y1="41.1513" x2="83.2422" y2="27.9091" gradientUnits="userSpaceOnUse">
<stop stop-color="#FFE5CA"/>
<stop offset="1" stop-color="#FFE5CA" stop-opacity="0"/>
</linearGradient>
<linearGradient id="paint24_linear_2616_16502" x1="55.8548" y1="21.6882" x2="53.9072" y2="35.7398" gradientUnits="userSpaceOnUse">
<stop offset="0.567708" stop-color="#C49275"/>
<stop offset="1" stop-color="#D59471"/>
<stop offset="1" stop-color="#E3AB91"/>
</linearGradient>
<radialGradient id="paint25_radial_2616_16502" cx="0" cy="0" r="1" gradientUnits="userSpaceOnUse" gradientTransform="translate(47.5583 28.0264) rotate(-11.0394) scale(14.9421 12.4651)">
<stop offset="0.732503" stop-color="#3D3D3E" stop-opacity="0"/>
<stop offset="1" stop-color="#3D3D3E"/>
</radialGradient>
<radialGradient id="paint26_radial_2616_16502" cx="0" cy="0" r="1" gradientUnits="userSpaceOnUse" gradientTransform="translate(47.5583 29.0225) rotate(-23.6903) scale(12.5414 12.1093)">
<stop offset="0.713542" stop-color="#443934"/>
<stop offset="0.96875" stop-color="#443934" stop-opacity="0"/>
</radialGradient>
<radialGradient id="paint27_radial_2616_16502" cx="0" cy="0" r="1" gradientUnits="userSpaceOnUse" gradientTransform="translate(56.4264 31.435) rotate(-122.764) scale(12.6034 12.9939)">
<stop offset="0.825317" stop-color="#453B36" stop-opacity="0"/>
<stop offset="1" stop-color="#453B36"/>
</radialGradient>
<radialGradient id="paint28_radial_2616_16502" cx="0" cy="0" r="1" gradientUnits="userSpaceOnUse" gradientTransform="translate(53.7109 25.4482) rotate(57.8628) scale(10.7946 10.3681)">
<stop offset="0.862139" stop-color="#251D20" stop-opacity="0"/>
<stop offset="0.965829" stop-color="#251D20"/>
</radialGradient>
<radialGradient id="paint29_radial_2616_16502" cx="0" cy="0" r="1" gradientUnits="userSpaceOnUse" gradientTransform="translate(53.7988 56.6787) rotate(1.40863) scale(3.5753 1.84869)">
<stop offset="0.541193" stop-color="#E6AFA3"/>
<stop offset="1" stop-color="#FFD4BF"/>
</radialGradient>
<radialGradient id="paint30_radial_2616_16502" cx="0" cy="0" r="1" gradientUnits="userSpaceOnUse" gradientTransform="translate(55.249 55.5361) rotate(90) scale(2.66602 3.365)">
<stop offset="0.559454" stop-color="#E0A39C" stop-opacity="0"/>
<stop offset="1" stop-color="#E0A39C"/>
</radialGradient>
<radialGradient id="paint31_radial_2616_16502" cx="0" cy="0" r="1" gradientUnits="userSpaceOnUse" gradientTransform="translate(62.0598 51.9112) rotate(-127.812) scale(1.74848 2.40724)">
<stop offset="0.765532" stop-color="#FFE6E2" stop-opacity="0"/>
<stop offset="0.966159" stop-color="#FFE6E2"/>
</radialGradient>
<linearGradient id="paint32_linear_2616_16502" x1="66.7103" y1="51.7715" x2="65.2601" y2="52.665" gradientUnits="userSpaceOnUse">
<stop stop-color="#B4948D"/>
<stop offset="1" stop-color="#B4948D" stop-opacity="0"/>
</linearGradient>
<linearGradient id="paint33_linear_2616_16502" x1="49.7339" y1="51.7715" x2="48.2837" y2="52.665" gradientUnits="userSpaceOnUse">
<stop stop-color="#B4948D"/>
<stop offset="1" stop-color="#B4948D" stop-opacity="0"/>
</linearGradient>
<radialGradient id="paint34_radial_2616_16502" cx="0" cy="0" r="1" gradientUnits="userSpaceOnUse" gradientTransform="translate(44.9722 52.5355) rotate(-90.897) scale(2.28387 2.7453)">
<stop offset="0.765532" stop-color="#FFE6E2" stop-opacity="0"/>
<stop offset="0.966159" stop-color="#FFE6E2"/>
</radialGradient>
<linearGradient id="paint35_linear_2616_16502" x1="66.3379" y1="44.6083" x2="61.2988" y2="43.5283" gradientUnits="userSpaceOnUse">
<stop stop-color="#343434"/>
<stop offset="1" stop-color="#343434" stop-opacity="0"/>
</linearGradient>
</defs>
</svg>
