<svg width="52" height="52" viewBox="0 0 52 52" fill="none" xmlns="http://www.w3.org/2000/svg">
<g filter="url(#filter0_i_2507_12317)">
<circle cx="26" cy="26.6729" r="17.6719" fill="url(#paint0_linear_2507_12317)"/>
</g>
<g filter="url(#filter1_iiii_2507_12317)">
<path fill-rule="evenodd" clip-rule="evenodd" d="M26 49.3721C38.5364 49.3721 48.6992 39.2093 48.6992 26.6729C48.6992 14.1364 38.5364 3.97363 26 3.97363C13.4636 3.97363 3.30078 14.1364 3.30078 26.6729C3.30078 39.2093 13.4636 49.3721 26 49.3721ZM26 44.3447C35.7599 44.3447 43.6719 36.4328 43.6719 26.6729C43.6719 16.9129 35.7599 9.00098 26 9.00098C16.2401 9.00098 8.32812 16.9129 8.32812 26.6729C8.32812 36.4328 16.2401 44.3447 26 44.3447Z" fill="url(#paint1_linear_2507_12317)"/>
</g>
<g filter="url(#filter2_f_2507_12317)">
<path fill-rule="evenodd" clip-rule="evenodd" d="M16.1087 18.387C15.8276 18.566 15.6573 18.8762 15.6573 19.2095V19.6646C15.6573 20.079 15.9675 20.4208 16.3683 20.4708V32.817H16.1933C15.6757 32.817 15.2233 33.1665 15.0926 33.6673L14.5897 35.5953C14.4554 36.1101 14.8438 36.6129 15.3758 36.6129H35.6085C36.1311 36.6129 36.5177 36.1268 36.4003 35.6177L35.9574 33.6987C35.8383 33.1826 35.3787 32.817 34.8491 32.817H34.6749V20.4672C35.0633 20.4063 35.3605 20.0702 35.3605 19.6646V19.2095C35.3605 18.8762 35.1902 18.566 34.9091 18.387L26.1634 12.8196C25.7641 12.5654 25.2537 12.5654 24.8544 12.8196L16.1087 18.387ZM32.0597 32.817V20.4771H29.4444V32.817H32.0597ZM26.8292 32.817V20.4771H24.214V32.817H26.8292ZM21.5987 32.817V20.4771H18.9835V32.817H21.5987Z" fill="#DC7B3C"/>
</g>
<g filter="url(#filter3_ii_2507_12317)">
<path d="M16.165 18.7525C16.165 18.4192 16.3353 18.109 16.6164 17.93L25.3621 12.3625C25.7614 12.1083 26.2718 12.1083 26.6711 12.3625L35.4168 17.93C35.6979 18.109 35.8682 18.4192 35.8682 18.7525V19.2076C35.8682 19.6563 35.5044 20.0201 35.0557 20.0201H16.9775C16.5288 20.0201 16.165 19.6563 16.165 19.2076V18.7525Z" fill="#FFC546"/>
</g>
<path d="M16.165 18.7525C16.165 18.4192 16.3353 18.109 16.6164 17.93L25.3621 12.3625C25.7614 12.1083 26.2718 12.1083 26.6711 12.3625L35.4168 17.93C35.6979 18.109 35.8682 18.4192 35.8682 18.7525V19.2076C35.8682 19.6563 35.5044 20.0201 35.0557 20.0201H16.9775C16.5288 20.0201 16.165 19.6563 16.165 19.2076V18.7525Z" fill="url(#paint2_linear_2507_12317)"/>
<path d="M16.876 19.5342C16.876 19.3961 16.9879 19.2842 17.126 19.2842H19.2412C19.3793 19.2842 19.4912 19.3961 19.4912 19.5342V32.7158H16.876V19.5342Z" fill="url(#paint3_linear_2507_12317)"/>
<path d="M16.876 19.5342C16.876 19.3961 16.9879 19.2842 17.126 19.2842H19.2412C19.3793 19.2842 19.4912 19.3961 19.4912 19.5342V32.7158H16.876V19.5342Z" fill="url(#paint4_linear_2507_12317)"/>
<rect x="22.1064" y="19.2842" width="2.61523" height="13.4316" fill="url(#paint5_linear_2507_12317)"/>
<rect x="22.1064" y="19.2842" width="2.61523" height="13.4316" fill="url(#paint6_linear_2507_12317)"/>
<rect x="27.3369" y="19.2842" width="2.61523" height="13.4316" fill="url(#paint7_linear_2507_12317)"/>
<rect x="27.3369" y="19.2842" width="2.61523" height="13.4316" fill="url(#paint8_linear_2507_12317)"/>
<rect x="32.5674" y="19.2842" width="2.61523" height="13.4316" fill="url(#paint9_linear_2507_12317)"/>
<rect x="32.5674" y="19.2842" width="2.61523" height="13.4316" fill="url(#paint10_linear_2507_12317)"/>
<g filter="url(#filter4_ii_2507_12317)">
<path d="M15.6005 33.2107C15.7311 32.7098 16.1835 32.3604 16.7011 32.3604H35.3569C35.8866 32.3604 36.3461 32.726 36.4652 33.2421L36.9081 35.1611C37.0256 35.6702 36.6389 36.1562 36.1164 36.1562H15.8837C15.3517 36.1562 14.9632 35.6534 15.0975 35.1387L15.6005 33.2107Z" fill="#FFC248"/>
</g>
<defs>
<filter id="filter0_i_2507_12317" x="8.07812" y="9.00098" width="35.5938" height="35.5938" filterUnits="userSpaceOnUse" color-interpolation-filters="sRGB">
<feFlood flood-opacity="0" result="BackgroundImageFix"/>
<feBlend mode="normal" in="SourceGraphic" in2="BackgroundImageFix" result="shape"/>
<feColorMatrix in="SourceAlpha" type="matrix" values="0 0 0 0 0 0 0 0 0 0 0 0 0 0 0 0 0 0 127 0" result="hardAlpha"/>
<feOffset dx="-0.25" dy="0.25"/>
<feGaussianBlur stdDeviation="0.5"/>
<feComposite in2="hardAlpha" operator="arithmetic" k2="-1" k3="1"/>
<feColorMatrix type="matrix" values="0 0 0 0 0.831373 0 0 0 0 0.45098 0 0 0 0 0.196078 0 0 0 1 0"/>
<feBlend mode="normal" in2="shape" result="effect1_innerShadow_2507_12317"/>
</filter>
<filter id="filter1_iiii_2507_12317" x="3.00078" y="3.67363" width="45.9984" height="45.9984" filterUnits="userSpaceOnUse" color-interpolation-filters="sRGB">
<feFlood flood-opacity="0" result="BackgroundImageFix"/>
<feBlend mode="normal" in="SourceGraphic" in2="BackgroundImageFix" result="shape"/>
<feColorMatrix in="SourceAlpha" type="matrix" values="0 0 0 0 0 0 0 0 0 0 0 0 0 0 0 0 0 0 127 0" result="hardAlpha"/>
<feOffset dx="0.3" dy="0.3"/>
<feGaussianBlur stdDeviation="0.3"/>
<feComposite in2="hardAlpha" operator="arithmetic" k2="-1" k3="1"/>
<feColorMatrix type="matrix" values="0 0 0 0 0.886275 0 0 0 0 0.662745 0 0 0 0 0.235294 0 0 0 1 0"/>
<feBlend mode="normal" in2="shape" result="effect1_innerShadow_2507_12317"/>
<feColorMatrix in="SourceAlpha" type="matrix" values="0 0 0 0 0 0 0 0 0 0 0 0 0 0 0 0 0 0 127 0" result="hardAlpha"/>
<feOffset dx="0.3" dy="-0.3"/>
<feGaussianBlur stdDeviation="0.3"/>
<feComposite in2="hardAlpha" operator="arithmetic" k2="-1" k3="1"/>
<feColorMatrix type="matrix" values="0 0 0 0 0.956863 0 0 0 0 0.607843 0 0 0 0 0.294118 0 0 0 1 0"/>
<feBlend mode="normal" in2="effect1_innerShadow_2507_12317" result="effect2_innerShadow_2507_12317"/>
<feColorMatrix in="SourceAlpha" type="matrix" values="0 0 0 0 0 0 0 0 0 0 0 0 0 0 0 0 0 0 127 0" result="hardAlpha"/>
<feOffset dy="-0.3"/>
<feGaussianBlur stdDeviation="0.3"/>
<feComposite in2="hardAlpha" operator="arithmetic" k2="-1" k3="1"/>
<feColorMatrix type="matrix" values="0 0 0 0 0.956863 0 0 0 0 0.607843 0 0 0 0 0.294118 0 0 0 1 0"/>
<feBlend mode="normal" in2="effect2_innerShadow_2507_12317" result="effect3_innerShadow_2507_12317"/>
<feColorMatrix in="SourceAlpha" type="matrix" values="0 0 0 0 0 0 0 0 0 0 0 0 0 0 0 0 0 0 127 0" result="hardAlpha"/>
<feOffset dx="-0.3" dy="0.3"/>
<feGaussianBlur stdDeviation="0.3"/>
<feComposite in2="hardAlpha" operator="arithmetic" k2="-1" k3="1"/>
<feColorMatrix type="matrix" values="0 0 0 0 1 0 0 0 0 0.882353 0 0 0 0 0.337255 0 0 0 1 0"/>
<feBlend mode="normal" in2="effect3_innerShadow_2507_12317" result="effect4_innerShadow_2507_12317"/>
</filter>
<filter id="filter2_f_2507_12317" x="13.963" y="12.0289" width="23.0584" height="25.1844" filterUnits="userSpaceOnUse" color-interpolation-filters="sRGB">
<feFlood flood-opacity="0" result="BackgroundImageFix"/>
<feBlend mode="normal" in="SourceGraphic" in2="BackgroundImageFix" result="shape"/>
<feGaussianBlur stdDeviation="0.3" result="effect1_foregroundBlur_2507_12317"/>
</filter>
<filter id="filter3_ii_2507_12317" x="16.165" y="11.9219" width="19.8531" height="8.34863" filterUnits="userSpaceOnUse" color-interpolation-filters="sRGB">
<feFlood flood-opacity="0" result="BackgroundImageFix"/>
<feBlend mode="normal" in="SourceGraphic" in2="BackgroundImageFix" result="shape"/>
<feColorMatrix in="SourceAlpha" type="matrix" values="0 0 0 0 0 0 0 0 0 0 0 0 0 0 0 0 0 0 127 0" result="hardAlpha"/>
<feOffset dy="-0.25"/>
<feGaussianBlur stdDeviation="0.25"/>
<feComposite in2="hardAlpha" operator="arithmetic" k2="-1" k3="1"/>
<feColorMatrix type="matrix" values="0 0 0 0 0.980392 0 0 0 0 0.647059 0 0 0 0 0.172549 0 0 0 1 0"/>
<feBlend mode="normal" in2="shape" result="effect1_innerShadow_2507_12317"/>
<feColorMatrix in="SourceAlpha" type="matrix" values="0 0 0 0 0 0 0 0 0 0 0 0 0 0 0 0 0 0 127 0" result="hardAlpha"/>
<feOffset dx="0.15" dy="0.25"/>
<feGaussianBlur stdDeviation="0.25"/>
<feComposite in2="hardAlpha" operator="arithmetic" k2="-1" k3="1"/>
<feColorMatrix type="matrix" values="0 0 0 0 0.980392 0 0 0 0 0.647059 0 0 0 0 0.172549 0 0 0 1 0"/>
<feBlend mode="normal" in2="effect1_innerShadow_2507_12317" result="effect2_innerShadow_2507_12317"/>
</filter>
<filter id="filter4_ii_2507_12317" x="14.8208" y="32.1104" width="22.3584" height="4.2959" filterUnits="userSpaceOnUse" color-interpolation-filters="sRGB">
<feFlood flood-opacity="0" result="BackgroundImageFix"/>
<feBlend mode="normal" in="SourceGraphic" in2="BackgroundImageFix" result="shape"/>
<feColorMatrix in="SourceAlpha" type="matrix" values="0 0 0 0 0 0 0 0 0 0 0 0 0 0 0 0 0 0 127 0" result="hardAlpha"/>
<feOffset dx="0.25" dy="-0.25"/>
<feGaussianBlur stdDeviation="0.2"/>
<feComposite in2="hardAlpha" operator="arithmetic" k2="-1" k3="1"/>
<feColorMatrix type="matrix" values="0 0 0 0 0.992157 0 0 0 0 0.658824 0 0 0 0 0.0705882 0 0 0 1 0"/>
<feBlend mode="normal" in2="shape" result="effect1_innerShadow_2507_12317"/>
<feColorMatrix in="SourceAlpha" type="matrix" values="0 0 0 0 0 0 0 0 0 0 0 0 0 0 0 0 0 0 127 0" result="hardAlpha"/>
<feOffset dx="-0.25" dy="0.25"/>
<feGaussianBlur stdDeviation="0.2"/>
<feComposite in2="hardAlpha" operator="arithmetic" k2="-1" k3="1"/>
<feColorMatrix type="matrix" values="0 0 0 0 1 0 0 0 0 0.8 0 0 0 0 0.290196 0 0 0 1 0"/>
<feBlend mode="normal" in2="effect1_innerShadow_2507_12317" result="effect2_innerShadow_2507_12317"/>
</filter>
<linearGradient id="paint0_linear_2507_12317" x1="18.7891" y1="35.5088" x2="37.8828" y2="11.4385" gradientUnits="userSpaceOnUse">
<stop stop-color="#F19D48"/>
<stop offset="1" stop-color="#E89A44"/>
</linearGradient>
<linearGradient id="paint1_linear_2507_12317" x1="26" y1="3.97363" x2="26" y2="49.3721" gradientUnits="userSpaceOnUse">
<stop stop-color="#FFC444"/>
<stop offset="1" stop-color="#FFC24B"/>
</linearGradient>
<linearGradient id="paint2_linear_2507_12317" x1="31.3828" y1="15.0943" x2="30.7226" y2="16.096" gradientUnits="userSpaceOnUse">
<stop offset="0.458872" stop-color="#FFCA3F"/>
<stop offset="1" stop-color="#FFCA3F" stop-opacity="0"/>
</linearGradient>
<linearGradient id="paint3_linear_2507_12317" x1="17.1132" y1="24.4701" x2="18.3828" y2="24.4701" gradientUnits="userSpaceOnUse">
<stop offset="0.166667" stop-color="#FFB33B"/>
<stop offset="1" stop-color="#FFC047"/>
</linearGradient>
<linearGradient id="paint4_linear_2507_12317" x1="19.4912" y1="27.115" x2="18.8652" y2="27.115" gradientUnits="userSpaceOnUse">
<stop offset="0.0671736" stop-color="#FFC34C"/>
<stop offset="1" stop-color="#FFC34C" stop-opacity="0"/>
</linearGradient>
<linearGradient id="paint5_linear_2507_12317" x1="22.3437" y1="24.4701" x2="23.6132" y2="24.4701" gradientUnits="userSpaceOnUse">
<stop offset="0.166667" stop-color="#FFB33B"/>
<stop offset="1" stop-color="#FFC047"/>
</linearGradient>
<linearGradient id="paint6_linear_2507_12317" x1="24.7217" y1="27.115" x2="24.0956" y2="27.115" gradientUnits="userSpaceOnUse">
<stop offset="0.0671736" stop-color="#FFC34C"/>
<stop offset="1" stop-color="#FFC34C" stop-opacity="0"/>
</linearGradient>
<linearGradient id="paint7_linear_2507_12317" x1="27.5742" y1="24.4701" x2="28.8437" y2="24.4701" gradientUnits="userSpaceOnUse">
<stop offset="0.166667" stop-color="#FFB33B"/>
<stop offset="1" stop-color="#FFC047"/>
</linearGradient>
<linearGradient id="paint8_linear_2507_12317" x1="29.9521" y1="27.115" x2="29.3261" y2="27.115" gradientUnits="userSpaceOnUse">
<stop offset="0.0671736" stop-color="#FFC34C"/>
<stop offset="1" stop-color="#FFC34C" stop-opacity="0"/>
</linearGradient>
<linearGradient id="paint9_linear_2507_12317" x1="32.8046" y1="24.4701" x2="34.0742" y2="24.4701" gradientUnits="userSpaceOnUse">
<stop offset="0.166667" stop-color="#FFB33B"/>
<stop offset="1" stop-color="#FFC047"/>
</linearGradient>
<linearGradient id="paint10_linear_2507_12317" x1="35.1826" y1="27.115" x2="34.5566" y2="27.115" gradientUnits="userSpaceOnUse">
<stop offset="0.0671736" stop-color="#FFC34C"/>
<stop offset="1" stop-color="#FFC34C" stop-opacity="0"/>
</linearGradient>
</defs>
</svg>
