<svg width="34" height="35" xmlns="http://www.w3.org/2000/svg" xmlns:xlink="http://www.w3.org/1999/xlink" xml:space="preserve" overflow="hidden"><g transform="translate(-882 -641)"><g><g><g><g><path d="M908.575 667.197 902.388 665.066 902.353 665.066 899.878 664.206 911.463 648.909 908.575 667.197ZM900.841 666.028 898.572 668.297 899.191 665.478 900.841 666.028ZM898.091 664.275C898.022 664.344 897.987 664.447 897.953 664.55L897.85 664.997 897.162 668.125 895.513 663.312 908.369 650.938 898.503 663.759 898.091 664.275ZM888.156 660.219 908.3 649.494 894.516 662.384 888.156 660.219ZM912.975 645.919C912.769 645.747 912.459 645.747 912.219 645.884L886.128 659.737C885.888 659.875 885.75 660.116 885.75 660.391 885.75 660.666 885.956 660.906 886.197 660.975L893.347 663.416 894.241 663.725 894.447 664.309 896.578 670.703 896.578 670.737 896.578 670.772C896.647 670.978 896.853 671.15 897.094 671.219 897.334 671.287 897.575 671.219 897.747 671.047L897.781 671.013 897.987 670.806 902.319 666.544 908.919 668.812C909.125 668.881 909.331 668.847 909.503 668.744 909.675 668.641 909.812 668.469 909.847 668.263L913.284 646.606C913.319 646.297 913.181 646.056 912.975 645.919Z" fill="#000000" fill-rule="nonzero" fill-opacity="1"/></g></g></g></g></g></svg>